<?xml version="1.0" standalone="no"?>
<!DOCTYPE svg PUBLIC "-//W3C//DTD SVG 1.1//EN" "http://www.w3.org/Graphics/SVG/1.1/DTD/svg11.dtd" >
<svg xmlns="http://www.w3.org/2000/svg">
<metadata></metadata>
<defs>
<font id="minimasskregular" horiz-adv-x="1034" >
<font-face units-per-em="2048" ascent="1638" descent="-410" />
<missing-glyph horiz-adv-x="792" />
<glyph horiz-adv-x="2048" />
<glyph horiz-adv-x="2048" />
<glyph unicode="&#xd;" horiz-adv-x="792" />
<glyph unicode=" "  horiz-adv-x="792" />
<glyph unicode="&#x09;" horiz-adv-x="792" />
<glyph unicode="&#xa0;" horiz-adv-x="792" />
<glyph unicode="!" horiz-adv-x="387" d="M125 0v162h137v-162h-137zM125 346v1090h137v-1090h-137z" />
<glyph unicode="&#x22;" horiz-adv-x="477" d="M45 1464h115l-23 -360h-69zM319 1464h113l-22 -360h-68z" />
<glyph unicode="#" horiz-adv-x="1062" d="M37 707l24 116h218l49 193h-217l30 114h215l54 216h112l-55 -216h250l55 216h111l-54 -216h197l-27 -114h-198l-47 -193h200l-30 -116h-199l-53 -207h-111l51 207h-250l-53 -207h-110l53 207h-215zM389 823h252l49 193h-250z" />
<glyph unicode="$" horiz-adv-x="1329" d="M78 1030q0 248 139 336q109 70 371 70v137h147v-137q262 0 365 -66q131 -84 131 -328h-150q0 162 -96 211q-63 33 -250 33v-475q264 0 371 -66q145 -85 145 -331t-143 -338q-113 -74 -373 -74v-186h-147v186q-246 0 -361 78q-137 94 -137 330h148q4 -156 104 -215 q78 -43 246 -43v510q-270 0 -369 51q-141 78 -141 317zM238 1030q0 -133 69 -180q57 -39 197 -39h84v475h-64q-162 0 -219 -47q-68 -51 -67 -209zM735 152h80q152 0 214.5 57.5t62.5 204.5q0 139 -64 196q-59 51 -203 52h-90v-510z" />
<glyph unicode="%" horiz-adv-x="2029" d="M109 924v129q0 233 92 311q82 70 317 70q205 0 286 -87t81 -294v-129q0 -203 -72 -283q-76 -88 -272 -88h-80q-199 0 -275.5 84t-76.5 287zM231 920q0 -141 48.5 -191.5t189.5 -50.5h57q141 0 188.5 49.5t47.5 192.5v139q0 152 -48 200t-200 48h-53q-143 0 -186.5 -50.5 t-43.5 -197.5v-139zM758 -68l420 1573h102l-420 -1573h-102zM1145 373v127q0 233 92 311q82 70 317 70q205 0 286 -87t81 -294v-127q0 -203 -70 -285q-78 -88 -274 -88h-80q-199 0 -275.5 85t-76.5 288zM1268 369q0 -143 48 -192.5t189 -49.5h58q141 0 188 49.5t47 192.5 v137q0 152 -48 201t-200 49h-53q-143 0 -186 -51.5t-43 -198.5v-137z" />
<glyph unicode="&#x26;" horiz-adv-x="1466" d="M90 455q0 352 309 436q-63 84 -63 221q0 197 153 272q106 51 326 52q205 0 299 -103.5t100 -312.5h-147q-6 197 -96 248q-57 31 -275 30q-225 0 -225 -198q0 -133 299 -434q193 -180 385 -359q29 63 29 299h149q0 -303 -63 -399l108 -111l-100 -96l-111 106 q-150 -106 -374 -106h-162q-281 0 -400 86q-141 102 -141 369zM225 455q0 -190 101 -260q80 -55 284 -56h197q152 0 248 68l-576 581q-254 -63 -254 -333z" />
<glyph unicode="'" horiz-adv-x="235" d="M61 1464h115l-22 -360h-70z" />
<glyph unicode="(" horiz-adv-x="495" d="M53 154v1007q0 406 389 406v-146q-242 2 -241 -264v-999q0 -268 241 -267v-143q-203 0 -296 100.5t-93 305.5z" />
<glyph unicode=")" horiz-adv-x="512" d="M61 -109q242 -2 242 267v999q0 266 -242 264v146q389 0 390 -406v-1007q0 -205 -92.5 -305.5t-297.5 -100.5v143z" />
<glyph unicode="*" horiz-adv-x="704" d="M70 1006q0 57 114 92q74 18 148 35q-76 12 -150 26q-113 29 -112 90q0 29 19.5 50.5t49.5 21.5q39 0 113 -74q45 -47 92 -96q-23 53 -43 109q-23 66 -22 110q0 78 71 78q72 0 72 -78q0 -45 -23 -110q-18 -55 -37 -109l82 102q68 74 113 74q29 0 50.5 -21.5t21.5 -50.5 q0 -57 -111 -92q-72 -14 -143 -30q74 -12 149 -27q113 -29 113 -92q0 -29 -20.5 -51.5t-49.5 -22.5q-41 0 -114 76q-45 49 -88 98q16 -55 34 -108q23 -68 23 -113q0 -78 -74 -78q-70 0 -69 78q0 45 22 111q20 55 41 108l-86 -102q-70 -76 -113 -76q-31 0 -52 21.5t-21 50.5z " />
<glyph unicode="+" horiz-adv-x="950" d="M111 537v137h297v299h135v-299h297v-137h-297v-301h-135v301h-297z" />
<glyph unicode="," horiz-adv-x="364" d="M102 0v162h160v-279q0 -102 -160 -102v72q84 0 84 57v90h-84z" />
<glyph unicode="-" horiz-adv-x="868" d="M106 526v150h654v-150h-654z" />
<glyph unicode="." horiz-adv-x="364" d="M102 0v162h160v-162h-160z" />
<glyph unicode="/" horiz-adv-x="604" d="M6 -184l455 1689h137l-457 -1689h-135z" />
<glyph unicode="0" horiz-adv-x="1259" d="M57 524v371q0 279 105 405q115 135 387 136h147q281 0 398 -129q109 -123 108 -412v-371q0 -287 -112.5 -405.5t-393.5 -118.5h-147q-268 0 -383 129q-109 121 -109 395zM205 524q0 -201 71 -284q78 -90 273 -90h147q211 0 285 79.5t74 294.5v371q0 223 -71 302t-288 79 h-147q-207 0 -281 -88q-63 -78 -63 -293v-371z" />
<glyph unicode="1" horiz-adv-x="1259" d="M330 1022l403 414h197v-1436h-148v1286l-350 -364z" />
<glyph unicode="2" horiz-adv-x="1259" d="M45 0v213q0 283 264 377q246 51 492 100q264 72 264 303q0 180 -94 246q-80 55 -273 55h-127q-168 0 -247 -43q-104 -57 -109 -209h-160q0 401 516 402h127q264 0 383 -92q131 -105 131 -359q0 -315 -264 -407q-246 -49 -491 -97q-264 -74 -264 -339h1013v-150h-1161z " />
<glyph unicode="3" horiz-adv-x="1259" d="M55 406h148q0 -152 56 -205.5t212 -53.5h268q170 0 236 50q80 59 80 223q0 150 -82 209q-63 43 -199 43q-35 0 -109.5 -3t-113.5 -3v149q25 0 78 -2h84q158 0 235 39q106 55 107 199q0 137 -86 192q-70 43 -217 43h-281q-158 0 -213 -55t-55 -211h-148v61q0 354 416 355 h236q240 0 354 -72q141 -90 141 -313q0 -254 -198 -301q198 -39 198 -330q0 -240 -133 -336q-113 -84 -362 -84h-236q-229 0 -322.5 89t-93.5 317z" />
<glyph unicode="4" horiz-adv-x="1259" d="M43 324v135l821 977h158v-977h195v-135h-195v-324h-148v324h-831zM225 459h649v786z" />
<glyph unicode="5" horiz-adv-x="1259" d="M74 408h147q6 -258 311 -258h173q215 0 280 92q49 70 49 293q0 172 -76.5 240.5t-252.5 68.5h-166q-119 0 -164 -8q-102 -18 -127 -86h-150v686h1047v-150h-899v-389q43 66 137 86q53 10 168 10h154q281 0 387 -131q92 -116 92 -399q0 -258 -107.5 -360.5t-367.5 -102.5 h-177q-459 0 -458 408z" />
<glyph unicode="6" horiz-adv-x="1259" d="M51 391v623q0 233 123 334q113 94 350 94h168q506 0 506 -400h-149q-4 154 -113 209q-76 39 -252 39h-143q-188 0 -258 -49q-84 -59 -84 -235v-240q61 78 147 106q68 20 186 21h220q246 0 351 -110.5t105 -360.5q0 -428 -434 -428h-280q-442 0 -443 397zM199 399 q0 -156 96 -213q76 -43 246 -43h188q160 0 238 52q94 61 94 211v73q0 152 -94 213q-78 53 -238 53h-201q-162 0 -239 -57q-90 -66 -90 -217v-72z" />
<glyph unicode="7" horiz-adv-x="1259" d="M74 1298v138h1112v-183l-783 -1253h-172l826 1298h-983z" />
<glyph unicode="8" horiz-adv-x="1259" d="M74 1120q0 330 395 330h319q229 0 318 -102q78 -91 78 -318q0 -125 -71 -207t-193 -86q162 -18 219 -127q43 -80 43 -258q0 -211 -117 -295q-100 -74 -320 -73h-233q-254 0 -345 93t-91 345q0 285 262 315q-160 6 -221 123q-43 84 -43 260zM221 389q0 -158 70 -211 q59 -45 223 -45h229q164 0 224 45q69 53 69 211q0 154 -71 211q-61 49 -222 49h-229q-158 0 -221 -49q-72 -57 -72 -211zM221 1059q0 -141 84 -197q66 -43 217 -43h213q152 0 219 43q82 56 82 197q0 156 -69 211q-61 49 -224 49h-229q-162 0 -223 -49q-70 -55 -70 -211z" />
<glyph unicode="9" horiz-adv-x="1259" d="M49 1022q0 420 471 420h185q504 0 503 -424v-551q0 -260 -116.5 -366.5t-378.5 -106.5h-172q-479 0 -480 397h148q4 -143 102 -201q78 -47 234 -47h151q209 0 286 68t77 272v185q-51 -80 -158 -109q-68 -18 -196 -18h-168q-283 0 -385.5 102t-102.5 379zM197 938 q0 -150 106 -209q78 -43 242 -43h139q172 0 256 39q119 56 119 203v90q0 166 -107 227q-80 45 -264 45h-164q-164 0 -239 -57q-88 -68 -88 -223v-72z" />
<glyph unicode=":" horiz-adv-x="370" d="M104 0v162h160v-162h-160zM104 752v159h160v-159h-160z" />
<glyph unicode=";" horiz-adv-x="370" d="M104 0v162h160v-279q0 -66 -49 -88q-33 -14 -111 -14v72q47 0 62 6q23 12 22 51v90h-84zM104 752v159h160v-159h-160z" />
<glyph unicode="&#x3c;" horiz-adv-x="751" d="M84 633l586 401v-162l-346 -239l346 -242v-162z" />
<glyph unicode="=" horiz-adv-x="876" d="M113 354v148h653v-148h-653zM113 686v150h653v-150h-653z" />
<glyph unicode="&#x3e;" horiz-adv-x="739" d="M78 229v162l346 242l-346 239v162l586 -401z" />
<glyph unicode="?" horiz-adv-x="1118" d="M37 1042q0 229 93 318.5t325 89.5h166q242 0 346 -84q114 -95 114 -326q0 -221 -137 -307l-254 -86q-137 -47 -137 -178v-123h-154v141q0 188 140 256l258 82q137 55 137 215t-78 220q-68 51 -235 51h-154q-162 0 -220.5 -55.5t-62.5 -213.5h-147zM406 0v162h155v-162 h-155z" />
<glyph unicode="@" horiz-adv-x="1327" d="M76 885q0 256 166 420.5t422 164.5q254 0 419.5 -162.5t165.5 -414.5q0 -133 -55 -215q-66 -96 -193 -96q-133 0 -145 147q-66 -147 -252 -147q-119 0 -192.5 75.5t-73.5 194.5q0 133 88 223t221 90q174 0 234 -157l22 145h68q-14 -96 -29 -195q-16 -117 -16 -194 q0 -109 86 -109t131 84q33 68 33 162q0 223 -143.5 361.5t-368.5 138.5q-223 0 -368.5 -144.5t-145.5 -367.5t145 -366.5t369 -143.5q90 0 182 29q109 33 155 90l46 -56q-51 -66 -181 -102q-106 -33 -209 -33q-254 0 -417.5 162t-163.5 416zM416 856q0 -86 52 -144.5 t138 -58.5q100 0 162.5 66t62.5 166q0 88 -47 145q-53 63 -139 64q-100 0 -164.5 -68t-64.5 -170z" />
<glyph unicode="A" horiz-adv-x="1359" d="M33 0l530 1436h234l532 -1436h-153l-127 346h-732l-127 -346h-157zM375 494h614l-303 835h-8z" />
<glyph unicode="B" horiz-adv-x="1239" d="M76 0v1436h516q495 0 495 -358q0 -247 -129 -314q203 -74 203 -342q0 -238 -135 -336q-117 -86 -364 -86h-586zM223 150h494q297 0 297 270q0 147 -82 207q-70 51 -225 51h-484v-528zM223 827h428q145 0 209 39q80 50 80 185q0 133 -82 188q-68 47 -209 47h-426v-459z " />
<glyph unicode="C" horiz-adv-x="1300" d="M43 788q0 401 132 531.5t527 130.5q555 0 555 -408h-147q0 178 -168 232q-85 26 -301 26h-16q-227 0 -326 -77q-84 -68 -102 -222q-6 -55 -7 -344q0 -248 42 -351t163 -136q90 -23 348 -23q174 0 256 43q113 59 113 216h148q0 -264 -189 -351q-121 -55 -422 -55 q-295 0 -428 86q-123 78 -158 260q-20 117 -20 442z" />
<glyph unicode="D" horiz-adv-x="1341" d="M94 0v1436h654q291 0 405 -162q94 -137 94 -440v-232q0 -315 -92 -446q-111 -156 -407 -156h-654zM242 145h506q225 0 299 123q53 90 53 334v232q0 229 -62 329q-80 127 -290 127h-506v-1145z" />
<glyph unicode="E" horiz-adv-x="1007" d="M47 0v1436h916v-146h-768v-475h733v-145h-733v-525h768v-145h-916z" />
<glyph unicode="F" horiz-adv-x="1026" d="M72 0v1436h915v-146h-768v-475h733v-145h-733v-670h-147z" />
<glyph unicode="G" horiz-adv-x="1308" d="M43 573v320q0 281 102 410q115 141 387 141h240q219 0 336 -90q121 -96 147 -312h-149q-20 145 -111 203q-76 49 -231 49h-232q-205 0 -278 -100q-63 -86 -64 -301v-320q0 -233 56 -317q72 -106 286 -106h228q209 0 282 86q70 80 74 296h-434v148h582v-107 q0 -303 -101 -430q-115 -143 -403 -143h-228q-283 0 -393 147q-96 129 -96 426z" />
<glyph unicode="H" horiz-adv-x="1249" d="M94 0v1436h150v-621h762v621h147v-1436h-147v666h-762v-666h-150z" />
<glyph unicode="I" horiz-adv-x="352" d="M102 0v1436h148v-1436h-148z" />
<glyph unicode="J" horiz-adv-x="1138" d="M68 479h147q0 -178 35 -241q51 -92 217 -93h135q276 0 277 293v998h147v-1000q0 -207 -106.5 -321.5t-311.5 -114.5h-139q-233 0 -326 131q-75 105 -75 342v6z" />
<glyph unicode="K" horiz-adv-x="1296" d="M55 0v1436h150v-594h155l586 594h213l-655 -656l780 -780h-221l-696 707h-162v-707h-150z" />
<glyph unicode="L" horiz-adv-x="1032" d="M88 0v1436h148v-1286h768v-150h-916z" />
<glyph unicode="M" horiz-adv-x="1761" d="M121 0v1436h246l518 -1211l510 1211h243v-1436h-147v1307l-561 -1307h-103l-563 1307v-1307h-143z" />
<glyph unicode="N" horiz-adv-x="1417" d="M92 0v1436h244l842 -1286v1286h147v-1436h-213l-872 1321v-1321h-148z" />
<glyph unicode="O" horiz-adv-x="1419" d="M100 573v320q0 281 103 410q115 141 387 141h239q272 0 388 -141q104 -127 104 -410v-320q0 -303 -102 -430q-113 -143 -402 -143h-227q-283 0 -393 147q-96 129 -97 426zM248 573q0 -233 55 -317q70 -106 287 -106h227q221 0 295 102q62 81 62 321v320q0 219 -68 305 q-76 96 -285 96h-231q-205 0 -281 -100q-61 -84 -61 -301v-320z" />
<glyph unicode="P" horiz-adv-x="1132" d="M53 0v1436h629q209 0 302 -100.5t93 -313.5q0 -248 -141 -344q-109 -76 -338 -76q-61 0 -192.5 7t-194.5 7v-616h-158zM211 762h471q137 0 192.5 61.5t55.5 202.5q0 135 -57.5 199.5t-190.5 64.5h-471v-528z" />
<glyph unicode="Q" horiz-adv-x="1419" d="M74 573v320q0 281 102 410q115 141 387 141h240q272 0 387 -141q104 -127 104 -410v-320q0 -242 -65 -372l119 -76l-78 -125l-133 84q-115 -84 -346 -84h-228q-283 0 -393 147q-96 129 -96 426zM221 573q0 -233 55 -317q72 -106 287 -106h228q137 0 202 28l-375 240 l89 119l397 -256q43 91 43 292v320q0 219 -68 305q-76 96 -284 96h-232q-205 0 -278 -100q-63 -84 -64 -301v-320z" />
<glyph unicode="R" horiz-adv-x="1191" d="M82 0v1436h647q182 0 281.5 -95.5t99.5 -277.5q0 -262 -160 -303q160 -31 160 -221v-539h-147v506q0 176 -172 176h-562v-682h-147zM229 827h516q125 0 173 60q45 53 45 180q0 223 -218 223h-516v-463z" />
<glyph unicode="S" horiz-adv-x="1200" d="M41 1073q0 362 426 363h221q244 0 346 -82q115 -92 115 -324h-148q-2 145 -65.5 200.5t-208.5 55.5h-274q-154 0 -209.5 -58.5t-55.5 -207.5q0 -127 97 -172q68 -33 227 -33h73h72q238 0 347 -67q157 -101 157 -375q0 -373 -456 -373h-230q-223 0 -322.5 94t-99.5 314 h148q0 -150 59 -204t213 -54h229q168 0 232 47q78 57 78 213q0 160 -107 217q-76 41 -248 41h-77q-51 -2 -78 -2q-219 0 -318 63q-143 92 -143 344z" />
<glyph unicode="T" horiz-adv-x="1277" d="M63 1290v146h1170v-146h-510v-1290h-148v1290h-512z" />
<glyph unicode="U" horiz-adv-x="1263" d="M80 436v1000h147v-1002q0 -152 67.5 -220.5t217.5 -68.5h233q162 0 226.5 63.5t64.5 225.5v1002h148v-996q0 -229 -105.5 -334.5t-333.5 -105.5h-233q-432 0 -432 436z" />
<glyph unicode="V" horiz-adv-x="1249" d="M18 1436h156l451 -1256l450 1256h156l-520 -1436h-172z" />
<glyph unicode="W" horiz-adv-x="2148" d="M53 1436h154l399 -1248l398 1248h165l400 -1248l399 1248h156l-469 -1436h-172l-400 1235l-397 -1235h-166z" />
<glyph unicode="X" horiz-adv-x="1339" d="M43 0l504 766l-438 670h170l393 -602l389 602h174l-440 -668l501 -768h-170l-454 690l-459 -690h-170z" />
<glyph unicode="Y" horiz-adv-x="1171" d="M55 1436h160l385 -637l387 637h160l-473 -768v-668h-148v668z" />
<glyph unicode="Z" horiz-adv-x="1138" d="M45 0v117l854 1169h-854v150h1051v-115l-840 -1171h840v-150h-1051z" />
<glyph unicode="[" horiz-adv-x="518" d="M113 -229v1804h286v-80h-149v-1649l158 -4v-73z" />
<glyph unicode="\" horiz-adv-x="595" d="M2 1505h137l455 -1689h-135z" />
<glyph unicode="]" horiz-adv-x="518" d="M113 -158l157 4v1649h-151v80h287v-1804l-293 -2v73z" />
<glyph unicode="^" horiz-adv-x="819" d="M70 700l299 625h82l301 -625h-68l-274 433l-275 -433h-65z" />
<glyph unicode="_" horiz-adv-x="796" d="M-14 -53h825v-82h-825v82z" />
<glyph unicode="`" horiz-adv-x="546" d="M74 1386l84 101l315 -281l-55 -51z" />
<glyph unicode="a" horiz-adv-x="1099" d="M109 340q0 141 88 213t231 72h158q180 0 258 -86v192q0 166 -189 166h-200q-90 0 -125 -23q-49 -31 -49 -116h-148v16q0 248 313 248h213q143 0 232 -61q100 -72 100 -209v-752h-145v86q-43 -86 -254 -86h-154q-178 0 -253.5 82t-75.5 258zM250 313q0 -104 57 -149 q51 -37 162 -37h158q215 0 215 186q0 109 -64 150q-53 35 -168 35h-143q-109 0 -160 -37q-57 -43 -57 -148z" />
<glyph unicode="b" horiz-adv-x="1089" d="M59 0v1436h148v-535q70 125 287 125h118q272 0 361 -170q57 -113 57 -414q0 -444 -414 -444h-118q-102 0 -160 18q-74 25 -131 97v-113h-148zM203 455q0 -330 291 -330h106q156 0 223 84q60 77 60 237v138q0 160 -66 235q-72 78 -229 78h-99q-158 0 -225 -80 q-61 -72 -61 -233v-129z" />
<glyph unicode="c" horiz-adv-x="1036" d="M76 442v138q0 231 82 333q90 113 315 113h98q201 0 293 -80q96 -86 97 -282h-138q0 141 -50 187t-198 46h-106q-193 0 -238 -131q-20 -57 -20 -303q0 -170 37 -240q53 -98 205 -98h114q164 0 211 55q45 49 45 215h138v-51q0 -346 -363 -346h-149q-211 0 -299 119 q-74 102 -74 325z" />
<glyph unicode="d" horiz-adv-x="1169" d="M98 584q0 442 418 442h119q217 0 287 -125v535h147v-1436h-147v113q-55 -72 -129 -97q-57 -18 -162 -18h-119q-268 0 -354 174q-59 113 -60 412zM246 446q0 -160 61 -237q68 -84 221 -84h107q291 0 291 330v129q0 162 -60 233q-68 80 -227 80h-98q-158 0 -226.5 -77 t-68.5 -236v-138z" />
<glyph unicode="e" d="M76 422v178q0 426 368 426h131q178 0 279 -86q104 -92 104 -266v-195h-747v-119q0 -235 236 -235h2h131q131 0 182 37q59 43 59 164h137v-45q0 -283 -383 -283h-131q-207 0 -292 111q-76 96 -76 313zM211 606h610q0 166 -37 221q-47 70 -204 70h-131q-147 0 -197 -74 q-41 -59 -41 -217z" />
<glyph unicode="f" horiz-adv-x="708" d="M70 885v137h125q0 207 38 287q59 127 244 127h162v-138q-170 0 -205 -8q-63 -12 -80 -67q-12 -43 -12 -201h299v-137h-299v-885h-147v885h-125z" />
<glyph unicode="g" horiz-adv-x="1187" d="M111 567q0 233 101 344t331 111h116q213 0 273 -131v131h147v-1071q0 -387 -407 -387h-137q-373 0 -373 272h147q-2 -147 228 -147h135q260 0 260 262v168q-72 -121 -266 -121h-131q-272 0 -363 160q-61 113 -61 409zM258 449q0 -172 57 -244q66 -80 232 -80h94 q164 0 233 86q62 76 62 244v118q0 170 -59 242q-66 82 -232 82h-98q-172 0 -236 -82q-53 -70 -53 -250v-116z" />
<glyph unicode="h" horiz-adv-x="1157" d="M100 0v1436h148v-543q47 88 168 115q66 14 213 14q430 0 430 -379v-643h-148v637q0 172 -94 225q-66 39 -252 39q-311 0 -311 -274v-627h-154z" />
<glyph unicode="i" horiz-adv-x="354" d="M102 0v1022h148v-1022h-148zM102 1286v150h148v-150h-148z" />
<glyph unicode="j" horiz-adv-x="493" d="M100 -301q143 0 144 164v1159h147v-1167q0 -293 -291 -293v137zM244 1286v150h147v-150h-147z" />
<glyph unicode="k" horiz-adv-x="1009" d="M70 0v1436h147v-748h102l324 334h180l-387 -404l520 -618h-178l-454 541h-107v-541h-147z" />
<glyph unicode="l" horiz-adv-x="364" d="M109 0v1436h147v-1436h-147z" />
<glyph unicode="m" horiz-adv-x="1896" d="M100 0v1022h148v-139q53 96 168 123q61 16 215 16q272 0 344 -172q55 115 180 151q74 20 244 21q176 0 282 -88q115 -96 115 -268v-666h-147v680q0 143 -113 188q-63 27 -233 27q-117 0 -195 -55q-86 -61 -86 -174v-666h-148v666q0 147 -108 196q-70 33 -236 33 q-125 0 -200 -59q-82 -66 -82 -187v-649h-148z" />
<glyph unicode="n" horiz-adv-x="1181" d="M113 0v1022h147v-137q70 137 277 137h104q430 0 430 -401v-621h-147v621q0 147 -69 213.5t-214 66.5h-100q-281 0 -281 -280v-621h-147z" />
<glyph unicode="o" d="M76 399v205q0 211 82 311q88 111 295 111h131q205 0 295 -111q79 -99 79 -306v-5v-205q0 -207 -81 -301q-88 -100 -293 -100h-131q-205 0 -293 100q-84 92 -84 301zM211 399q0 -152 47 -209q51 -63 199 -63h123q145 0 198 63q45 57 45 209v205q0 162 -41 221 q-51 72 -202 72h-123q-154 0 -205 -72q-41 -57 -41 -221v-205z" />
<glyph unicode="p" horiz-adv-x="1163" d="M96 -414v1436h148v-109q57 72 131 97q57 18 160 18h118q268 0 357 -174q57 -113 57 -412q0 -442 -418 -442h-119q-217 0 -286 125v-539h-148zM240 442q0 -162 61 -233q68 -80 225 -80h99q158 0 229 78q66 75 66 235v138q0 160 -60 237q-68 84 -223 84h-107 q-291 0 -290 -330v-129z" />
<glyph unicode="q" horiz-adv-x="1169" d="M100 584q0 444 414 444h119q102 0 160 -18q76 -25 131 -97v109h147v-1436h-147v539q-70 -125 -287 -125h-119q-272 0 -360 170q-57 113 -58 414zM248 442q0 -160 65 -233q70 -80 226 -80h92q164 0 231 78q66 71 66 235v129q0 330 -291 330h-107q-154 0 -218 -81t-64 -240 v-138z" />
<glyph unicode="r" horiz-adv-x="1062" d="M82 0v1022h145v-125q57 84 172 111q66 14 213 14q219 0 315.5 -99.5t96.5 -316.5h-147q0 186 -80 246q-66 49 -260 49q-145 0 -226.5 -78t-81.5 -223v-600h-147z" />
<glyph unicode="s" horiz-adv-x="1036" d="M59 326h127q0 -201 222 -201h239q100 0 146 31q55 37 55 133q0 102 -70 141q-53 31 -170 31q-33 0 -103.5 -3t-107.5 -3q-158 0 -233 51q-102 68 -103 244q0 135 91 208q82 68 221 68h225q371 0 371 -326h-127q0 115 -66 160q-55 37 -180 37h-225q-182 0 -183 -156 q0 -96 70 -133q51 -28 162 -28h8q29 0 92.5 2t95.5 2q168 0 248 -54q111 -72 111 -260q0 -272 -344 -272h-221q-350 0 -351 328z" />
<glyph unicode="t" horiz-adv-x="935" d="M76 885v137h125v197h147v-197h486v-137h-486v-582q0 -174 162 -174h102q143 0 142 156h147q0 -285 -266 -285h-154q-281 0 -280 319v566h-125z" />
<glyph unicode="u" horiz-adv-x="1130" d="M98 399v623h148v-633q0 -172 96 -221q59 -31 252 -31q291 0 291 252v633h147v-1022h-143v119q-59 -84 -172 -109q-57 -12 -209 -12q-213 0 -311.5 95t-98.5 306z" />
<glyph unicode="v" horiz-adv-x="995" d="M43 1022h156l307 -823l307 823h154l-377 -1022h-168z" />
<glyph unicode="w" horiz-adv-x="1656" d="M43 1022h152l284 -801l266 801h173l264 -782l278 782h152l-361 -1022h-145l-275 825l-276 -825h-154z" />
<glyph unicode="x" horiz-adv-x="1060" d="M20 0l408 551l-354 471h182l272 -367l271 367h182l-352 -469l409 -553h-184l-326 432l-323 -432h-185z" />
<glyph unicode="y" horiz-adv-x="1005" d="M45 -307q129 0 249 90t163 215h-13l-378 1024h155l307 -829l310 829h151l-354 -969q-78 -215 -219 -344q-160 -145 -371 -145v129z" />
<glyph unicode="z" horiz-adv-x="968" d="M57 0v117l650 768h-641v137h845v-115l-663 -768h663v-139h-854z" />
<glyph unicode="{" horiz-adv-x="579" d="M70 637q143 78 143 334q0 41 -4 127t-4 127q0 160 53 233q72 98 254 98v-114q-117 0 -164 -70q-39 -55 -39 -172q0 -45 7.5 -143.5t7.5 -147.5q0 -209 -117 -272q117 -82 117 -299q0 -45 -6.5 -134t-6.5 -128q0 -115 37 -170q47 -68 164 -68v-110q-184 0 -254 100 q-53 76 -53 240q0 37 4 116.5t4 118.5q0 258 -143 334z" />
<glyph unicode="|" horiz-adv-x="342" d="M115 -274v1802h112v-1802h-112z" />
<glyph unicode="}" horiz-adv-x="579" d="M70 -162q115 0 161 68q37 55 37 170q0 39 -6 128t-6 134q0 217 119 299q-119 63 -119 272q0 49 7 147.5t7 143.5q0 117 -39 172q-47 70 -161 70v114q180 0 252 -98q53 -74 53 -233q0 -41 -4 -127t-4 -127q0 -256 145 -334q-145 -76 -145 -334q0 -39 4 -119t4 -116 q0 -164 -53 -240q-70 -100 -252 -100v110z" />
<glyph unicode="~" horiz-adv-x="856" d="M84 702q14 92 70.5 152.5t146.5 60.5q70 0 139.5 -52t118.5 -52q90 0 105 98h108q-6 -90 -55 -147q-53 -63 -142 -64q-88 0 -157.5 54.5t-124.5 54.5q-84 0 -98 -105h-111z" />
<glyph unicode="&#xa1;" horiz-adv-x="524" d="M195 -297v1090h137v-1090h-137zM195 977v162h137v-162h-137z" />
<glyph unicode="&#xa2;" horiz-adv-x="1128" d="M123 543v254q0 219 88 307t303 88v131h145v-131q186 0 267.5 -87t81.5 -276h-136q0 131 -41 181q-47 57 -172 57v-776h21q125 0 164 78q29 51 28 192h136v-53q0 -182 -84 -262t-265 -80v-117h-145v117q-213 0 -299 78q-92 84 -92 299zM260 543q0 -252 219 -252h35v776 h-35q-137 0 -184 -74q-35 -57 -35 -205v-245z" />
<glyph unicode="&#xa3;" horiz-adv-x="1165" d="M76 0v150q139 100 184 161q68 90 70 232h-234v143h211q-14 66 -88 191q-59 100 -59 225q0 154 112 248q106 86 265 86h178q152 0 259.5 -88.5t115.5 -235.5h-146q-8 188 -250 188h-139q-248 0 -248 -208q0 -80 64 -205q74 -143 86 -201h446v-143h-424q0 -272 -209 -398 h789v-145h-983z" />
<glyph unicode="&#xa5;" horiz-adv-x="1155" d="M33 1436h160l385 -637l387 637h159l-467 -768h228v-113h-228v-82h228v-113h-228v-360h-161v360h-228v113h228v82h-228v113h228z" />
<glyph unicode="&#xa6;" horiz-adv-x="342" d="M115 0v594h112v-594h-112zM115 936v592h112v-592h-112z" />
<glyph unicode="&#xa7;" horiz-adv-x="1224" d="M57 602q0 250 176 285q-57 33 -73 98q-8 35 -8 127q0 127 90 203q84 70 215 69h282q322 0 322 -325h-127q0 109 -44 153.5t-155 44.5h-289q-170 0 -170 -159q0 -170 205 -170q47 0 157 10t167 10q168 0 254 -71q110 -95 110 -324q0 -100 -41 -172q-49 -82 -139 -98 q49 -39 66 -101q10 -37 10 -123q0 -133 -94 -204q-86 -63 -223 -64h-291q-147 0 -227 90t-80 238h124q0 -201 168 -201h318q180 0 180 164q0 168 -213 168q-45 0 -151.5 -8.5t-159.5 -8.5q-168 0 -252 66q-106 88 -107 303zM182 559q0 -186 176 -186h451q117 0 172 43 q63 49 63 164v45q0 186 -184 186h-506q-113 0 -149 -76q-23 -49 -23 -176z" />
<glyph unicode="&#xa8;" horiz-adv-x="700" d="M94 1286v150h148v-150h-148zM459 1286v150h147v-150h-147z" />
<glyph unicode="&#xa9;" horiz-adv-x="1310" d="M70 752q0 242 172 415.5t413 173.5q242 0 414 -173.5t172 -415.5q0 -244 -171 -418t-415 -174t-414.5 174t-170.5 418zM113 754q0 -225 157.5 -386t382.5 -161t383 161t158 386q0 223 -158.5 383.5t-382.5 160.5q-223 0 -381.5 -160.5t-158.5 -383.5zM367 745 q0 125 82.5 206t207.5 81q106 0 211 -71v-52q-98 78 -211 78q-109 0 -176 -67.5t-67 -174.5q0 -102 71 -163q66 -55 172 -56q115 0 211 80v-53q-90 -72 -211 -72q-125 0 -207.5 71t-82.5 193z" />
<glyph unicode="&#xaa;" horiz-adv-x="600" d="M78 973q0 141 162 141h77q92 0 132 -43v98q0 84 -95 84h-102q-88 0 -88 -71h-74v10q0 123 158 123h108q166 0 166 -135v-379h-73v43q-20 -43 -127 -43h-78q-166 0 -166 172zM84 645v62h438v-62h-438zM150 958q0 -94 110 -94h80q106 0 106 94q0 92 -114 93h-74 q-109 0 -108 -93z" />
<glyph unicode="&#xab;" horiz-adv-x="1114" d="M121 575l422 426l69 -67l-356 -359l354 -356l-69 -69zM502 575l424 426l67 -67l-354 -359l352 -356l-67 -69z" />
<glyph unicode="&#xac;" horiz-adv-x="882" d="M131 715v71h621v-71h-621zM199 504q0 150 178 149h143q102 0 144 -47q34 -41 34 -143q0 -125 -118 -131q72 -6 98 -56q18 -37 18 -116q0 -94 -48 -130t-146 -36h-107q-115 0 -154.5 42t-39.5 154q0 131 116 142q-119 6 -118 172zM256 1300l182 187h88v-645h-65v579 l-158 -164zM264 176q0 -74 35 -98q27 -18 98 -19h103q72 0 98 19q35 24 35 98q0 70 -32 93.5t-101 23.5h-103q-70 0 -98 -23q-35 -25 -35 -94zM264 477q0 -109 137 -108h95q137 -1 137 108q0 72 -35 96q-27 20 -98 21h-103q-72 0 -98 -21q-35 -25 -35 -96z" />
<glyph unicode="&#xad;" horiz-adv-x="868" d="M106 526v150h654v-150h-654z" />
<glyph unicode="&#xae;" horiz-adv-x="806" d="M80 1165q0 133 95 229.5t228 96.5t228.5 -96.5t95.5 -229.5t-95 -230t-229 -97q-133 0 -228 97t-95 230zM111 1165q0 -121 86 -209t206 -88q121 0 207 88t86 209t-86 208t-207 87t-206.5 -87t-85.5 -208zM291 985v377h143q45 0 75 -28.5t30 -73.5q0 -100 -121 -101 l121 -174h-37l-119 174h-64v-174h-28zM319 1188h117q74 0 74 72t-74 71h-117v-143z" />
<glyph unicode="&#xaf;" horiz-adv-x="692" d="M68 1249v80h557v-80h-557z" />
<glyph unicode="&#xb0;" horiz-adv-x="557" d="M119 1188v72q0 119 135 118h53q133 0 133 -118v-72q0 -119 -133 -119h-53q-135 0 -135 119zM164 1190q0 -76 90 -76h53q88 0 88 76v67q0 74 -88 74h-53q-90 0 -90 -74v-67z" />
<glyph unicode="&#xb1;" horiz-adv-x="882" d="M78 729v137h295v299h137v-299h295v-137h-295v-299h-137v299h-295zM113 223v150h653v-150h-653z" />
<glyph unicode="&#xb2;" horiz-adv-x="882" d="M180 844v96q0 127 119 170q109 23 219 47q121 33 121 133q0 82 -45 113q-35 25 -121 24h-57q-158 0 -160 -114h-72q0 180 232 180h57q119 0 172 -41q60 -47 60 -162q0 -145 -121 -186q-109 -18 -219 -39q-119 -31 -119 -156h456v-65h-522z" />
<glyph unicode="&#xb3;" horiz-adv-x="882" d="M184 1024h66q0 -68 25.5 -92.5t95.5 -24.5h121q74 0 104 21q39 27 39 102q0 115 -131 115h-49q-31 -2 -47 -2v65q121 0 145 6q82 18 82 99q0 109 -137 108h-127q-72 0 -96.5 -25.5t-24.5 -95.5h-66v27q0 160 187 160h106q106 0 158 -33q66 -41 65 -141q0 -113 -90 -133 q90 -17 90 -150q0 -109 -61 -151q-49 -37 -162 -37h-106q-104 0 -145.5 40t-41.5 142z" />
<glyph unicode="&#xb4;" horiz-adv-x="536" d="M70 1206l315 281l84 -101l-346 -231z" />
<glyph unicode="&#xb6;" horiz-adv-x="1265" d="M137 1026q0 201 131 309q125 100 330 101h244v-1553h-160v733q-252 0 -381 76q-164 98 -164 334zM981 -117v1553h149v-1553h-149z" />
<glyph unicode="&#xb7;" horiz-adv-x="466" d="M141 782v189h187v-189h-187z" />
<glyph unicode="&#xb8;" horiz-adv-x="428" d="M76 -178q104 0 129 39q16 25 16 137h133v-115q0 -186 -278 -186v125z" />
<glyph unicode="&#xb9;" horiz-adv-x="583" d="M158 1300l182 187h88v-645h-66v579l-157 -164z" />
<glyph unicode="&#xba;" horiz-adv-x="595" d="M76 1001v103q0 213 188 213h68q188 0 188 -213v-103q0 -203 -188 -202h-68q-104 0 -146 49t-42 153zM84 645v62h438v-62h-438zM143 1001q0 -76 23.5 -106.5t99.5 -30.5h64q74 0 98 35q23 28 23 102v103q0 82 -22.5 115.5t-98.5 33.5h-64q-78 0 -104 -36q-18 -29 -19 -113 v-103z" />
<glyph unicode="&#xbb;" horiz-adv-x="1114" d="M129 934l68 67l424 -426l-422 -423l-68 69l352 354zM494 934l67 67l424 -426l-422 -423l-67 69l352 354z" />
<glyph unicode="&#xbc;" horiz-adv-x="882" d="M131 715v71h621v-71h-621zM160 137v62l370 438h70v-438h88v-62h-88v-145h-65v145h-375zM242 199h293v354zM256 1300l182 187h88v-645h-65v579l-158 -164z" />
<glyph unicode="&#xbd;" horiz-adv-x="882" d="M131 715v71h621v-71h-621zM176 -2v94q0 127 119 170q111 23 221 47q119 33 119 135q0 82 -43 113q-37 25 -123 25h-57q-158 0 -160 -115h-72q0 180 232 180h57q119 0 172 -41q59 -47 59 -162q0 -147 -118 -186q-111 -18 -222 -39q-119 -31 -118 -156h456v-65h-522z M256 1300l182 187h88v-645h-65v579l-158 -164z" />
<glyph unicode="&#xbe;" horiz-adv-x="882" d="M133 698v72h617v-72h-617zM166 143v62l371 438h69v-438h88v-62h-88v-145h-65v145h-375zM203 1024h65q0 -68 25.5 -92.5t95.5 -24.5h121q76 0 104 21q39 27 39 102q0 115 -129 115h-49q-33 -2 -49 -2v65q123 0 145 6q82 18 82 99q0 109 -137 108h-127q-72 0 -96.5 -25.5 t-24.5 -95.5h-65v27q0 160 186 160h107q109 0 159 -33q63 -41 64 -141q0 -113 -90 -133q90 -17 90 -150q0 -109 -60 -151q-51 -37 -163 -37h-107q-102 0 -144 40t-42 142zM248 205h293v354z" />
<glyph unicode="&#xbf;" horiz-adv-x="1202" d="M80 84q0 223 135 307q127 43 256 86q137 47 137 178v125h154v-143q0 -186 -139 -254l-258 -82q-137 -57 -138 -217q0 -160 76 -219q68 -51 238 -51h153q160 0 218.5 55t64.5 213h147q0 -229 -93 -318.5t-324 -89.5h-166q-242 0 -346 84q-115 94 -115 326zM600 965v159 h156v-159h-156z" />
<glyph unicode="&#xc0;" horiz-adv-x="1359" d="M33 0l530 1436h234l532 -1436h-153l-127 346h-732l-127 -346h-157zM338 1718l74 99l274 -261l-49 -51zM375 494h614l-303 835h-8z" />
<glyph unicode="&#xc1;" horiz-adv-x="1359" d="M33 0l530 1436h234l532 -1436h-153l-127 346h-732l-127 -346h-157zM375 494h614l-303 835h-8zM625 1556l276 261l72 -99l-297 -213z" />
<glyph unicode="&#xc2;" horiz-adv-x="1359" d="M33 0l530 1436h234l532 -1436h-153l-127 346h-732l-127 -346h-157zM375 494h614l-303 835h-8zM377 1509l262 263h76l252 -263h-66l-225 142l-230 -142h-69z" />
<glyph unicode="&#xc3;" horiz-adv-x="1359" d="M33 0l530 1436h234l532 -1436h-153l-127 346h-732l-127 -346h-157zM350 1520q27 203 195 202q66 0 124 -53t97 -53q76 0 90 102h105q-6 -82 -52 -139q-51 -61 -129 -61q-82 0 -140 51t-101 51q-74 0 -86 -100h-103zM375 494h614l-303 835h-8z" />
<glyph unicode="&#xc4;" horiz-adv-x="1359" d="M33 0l530 1436h234l532 -1436h-153l-127 346h-732l-127 -346h-157zM375 494h614l-303 835h-8zM428 1536v143h141v-143h-141zM786 1536v143h142v-143h-142z" />
<glyph unicode="&#xc5;" horiz-adv-x="1359" d="M33 0l530 1436h234l532 -1436h-153l-127 346h-732l-127 -346h-157zM375 494h614l-303 835h-8zM512 1591v72q0 119 135 119h53q133 0 134 -119v-72q0 -119 -134 -118h-53q-135 0 -135 118zM557 1593q0 -76 90 -75h53q88 -1 88 75v68q0 74 -88 74h-53q-90 0 -90 -74v-68z " />
<glyph unicode="&#xc6;" horiz-adv-x="1806" d="M72 0l741 1436h922v-146h-725v-475h690v-145h-690v-525h725v-145h-873v670h-293l-340 -670h-157zM653 815h209v449z" />
<glyph unicode="&#xc7;" horiz-adv-x="1300" d="M43 788q0 401 132 531.5t527 130.5q555 0 555 -408h-147q0 178 -168 232q-88 27 -317 26q-227 0 -326 -77q-84 -68 -102 -222q-6 -55 -7 -344q0 -248 42 -351t163 -136q90 -23 348 -23q174 0 256 43q113 59 113 216h148q0 -223 -138 -320q-117 -84 -350 -86 q0 -219 -47 -274q-57 -68 -279 -66v139q129 -2 154 41q12 23 12 160q-279 4 -407 98q-113 82 -144 267q-18 106 -18 423z" />
<glyph unicode="&#xc8;" horiz-adv-x="1007" d="M47 0v1436h916v-146h-768v-475h733v-145h-733v-525h768v-145h-916zM276 1718l74 99l275 -261l-50 -51z" />
<glyph unicode="&#xc9;" horiz-adv-x="1007" d="M47 0v1436h916v-146h-768v-475h733v-145h-733v-525h768v-145h-916zM440 1556l277 261l71 -99l-296 -213z" />
<glyph unicode="&#xca;" horiz-adv-x="1007" d="M47 0v1436h916v-146h-768v-475h733v-145h-733v-525h768v-145h-916zM209 1507l262 260h76l252 -260h-66l-225 142l-232 -142h-67z" />
<glyph unicode="&#xcb;" horiz-adv-x="1007" d="M47 0v1436h916v-146h-768v-475h733v-145h-733v-525h768v-145h-916zM283 1536v143h141v-143h-141zM641 1536v143h141v-143h-141z" />
<glyph unicode="&#xcc;" horiz-adv-x="464" d="M35 1718l71 99l277 -261l-51 -51zM283 0v1436h147v-1436h-147z" />
<glyph unicode="&#xcd;" horiz-adv-x="464" d="M37 0v1436h147v-1436h-147zM82 1556l264 252l84 -90l-297 -213z" />
<glyph unicode="&#xce;" horiz-adv-x="352" d="M-119 1507l262 260h74l254 -260h-68l-225 142l-229 -142h-68zM106 0v1436h148v-1436h-148z" />
<glyph unicode="&#xcf;" horiz-adv-x="352" d="M-74 1536v143h142v-143h-142zM109 0v1436h147v-1436h-147zM287 1536v143h139v-143h-139z" />
<glyph unicode="&#xd0;" horiz-adv-x="1456" d="M92 629v151h121v656h653q289 0 404 -162q96 -137 96 -440v-232q0 -315 -92 -446q-111 -156 -408 -156h-653v629h-121zM360 145h506q223 0 297 123q56 90 56 334v232q0 229 -64 329q-78 127 -289 127h-506v-510h385v-151h-385v-484z" />
<glyph unicode="&#xd1;" horiz-adv-x="1417" d="M92 0v1436h244l842 -1286v1286h147v-1436h-213l-872 1321v-1321h-148zM412 1520q29 203 194 202q66 0 125.5 -53t95.5 -53q78 0 91 102h104q-6 -82 -53 -141t-127 -59q-82 0 -140.5 51t-101.5 51q-72 0 -86 -100h-102z" />
<glyph unicode="&#xd2;" horiz-adv-x="1429" d="M104 573v320q0 281 103 410q115 141 387 141h240q272 0 387 -141q104 -127 104 -410v-320q0 -303 -100 -430q-115 -143 -404 -143h-227q-283 0 -393 147q-96 129 -97 426zM252 573q0 -233 55 -317q72 -106 287 -106h227q223 0 297 102q60 81 60 321v320q0 219 -68 305 q-76 96 -285 96h-231q-205 0 -279 -100q-63 -84 -63 -301v-320zM420 1718l72 99l276 -261l-51 -51z" />
<glyph unicode="&#xd3;" horiz-adv-x="1419" d="M100 573v320q0 281 103 410q115 141 387 141h239q272 0 388 -141q104 -127 104 -410v-320q0 -303 -102 -430q-113 -143 -402 -143h-227q-283 0 -393 147q-96 129 -97 426zM248 573q0 -233 55 -317q70 -106 287 -106h227q221 0 295 102q62 81 62 321v320q0 219 -68 305 q-76 96 -285 96h-231q-205 0 -281 -100q-61 -84 -61 -301v-320zM635 1556l264 252l84 -90l-297 -213z" />
<glyph unicode="&#xd4;" horiz-adv-x="1419" d="M100 573v320q0 281 103 410q115 141 387 141h239q272 0 388 -141q104 -127 104 -410v-320q0 -303 -102 -430q-113 -143 -402 -143h-227q-283 0 -393 147q-96 129 -97 426zM248 573q0 -233 55 -317q70 -106 287 -106h227q221 0 295 102q62 81 62 321v320q0 219 -68 305 q-76 96 -285 96h-231q-205 0 -281 -100q-61 -84 -61 -301v-320zM399 1507l263 260h73l254 -260h-67l-226 142l-229 -142h-68z" />
<glyph unicode="&#xd5;" horiz-adv-x="1419" d="M100 573v320q0 281 103 410q115 141 387 141h239q272 0 388 -141q104 -127 104 -410v-320q0 -303 -102 -430q-113 -143 -402 -143h-227q-283 0 -393 147q-96 129 -97 426zM248 573q0 -233 55 -317q70 -106 287 -106h227q221 0 295 102q62 81 62 321v320q0 219 -68 305 q-76 96 -285 96h-231q-205 0 -281 -100q-61 -84 -61 -301v-320zM410 1520q27 203 194 202q66 0 124 -53t97 -53q76 0 90 102h105q-6 -82 -51 -139q-51 -61 -129 -61q-84 0 -141.5 51t-100.5 51q-74 0 -86 -100h-102z" />
<glyph unicode="&#xd6;" horiz-adv-x="1429" d="M104 573v320q0 281 103 410q115 141 387 141h240q272 0 387 -141q104 -127 104 -410v-320q0 -303 -100 -430q-115 -143 -404 -143h-227q-283 0 -393 147q-96 129 -97 426zM252 573q0 -233 55 -317q72 -106 287 -106h227q223 0 297 102q60 81 60 321v320q0 219 -68 305 q-76 96 -285 96h-231q-205 0 -279 -100q-63 -84 -63 -301v-320zM461 1536v143h139v-143h-139zM819 1536v143h142v-143h-142z" />
<glyph unicode="&#xd7;" horiz-adv-x="1056" d="M84 86l344 465l-287 383l115 88l272 -367l271 367l116 -88l-286 -381l346 -467l-121 -86l-326 432l-323 -432z" />
<glyph unicode="&#xd8;" horiz-adv-x="1429" d="M104 573v320q0 317 152 450q131 115 406 115q115 0 286 -20l76 159h154l-93 -194q240 -96 240 -510v-320q0 -303 -100 -430q-115 -143 -404 -143q-10 0 -131 -2q-80 -2 -133 2q-72 2 -129 14l-84 -180h-154l107 227q-193 111 -193 512zM252 573q0 -297 110 -374l519 1093 l-56 2h-231q-205 0 -279 -100q-63 -84 -63 -301v-320zM496 154q53 -4 98 -4h227q223 0 297 102q60 81 60 321v320q0 307 -156 373z" />
<glyph unicode="&#xd9;" horiz-adv-x="1263" d="M80 436v1000h147v-1002q0 -152 67.5 -220.5t217.5 -68.5h233q162 0 226.5 63.5t64.5 225.5v1002h148v-996q0 -229 -105.5 -334.5t-333.5 -105.5h-233q-432 0 -432 436zM352 1718l72 99l276 -261l-51 -51z" />
<glyph unicode="&#xda;" horiz-adv-x="1263" d="M80 436v1000h147v-1002q0 -152 67.5 -220.5t217.5 -68.5h233q162 0 226.5 63.5t64.5 225.5v1002h148v-996q0 -229 -105.5 -334.5t-333.5 -105.5h-233q-432 0 -432 436zM594 1556l264 252l84 -90l-297 -213z" />
<glyph unicode="&#xdb;" horiz-adv-x="1263" d="M80 436v1000h147v-1002q0 -152 67.5 -220.5t217.5 -68.5h233q162 0 226.5 63.5t64.5 225.5v1002h148v-996q0 -229 -105.5 -334.5t-333.5 -105.5h-233q-432 0 -432 436zM342 1507l262 260h76l252 -260h-66l-225 142l-231 -142h-68z" />
<glyph unicode="&#xdc;" horiz-adv-x="1429" d="M164 436v1000h147v-1002q0 -152 66.5 -220.5t218.5 -68.5h233q162 0 226.5 63.5t64.5 225.5v1002h148v-996q0 -229 -105.5 -334.5t-333.5 -105.5h-233q-432 0 -432 436zM467 1536v143h141v-143h-141zM827 1536v143h142v-143h-142z" />
<glyph unicode="&#xdd;" horiz-adv-x="1155" d="M33 1436h160l385 -637l387 637h159l-473 -768v-668h-147v668zM537 1556l276 261l72 -99l-297 -213z" />
<glyph unicode="&#xde;" horiz-adv-x="1243" d="M111 0v1436h157v-291q61 0 187.5 6t187.5 6q236 0 346 -76q146 -98 146 -350q0 -248 -144 -344q-109 -76 -338 -76q-61 0 -192 7.5t-193 7.5v-326h-157zM268 469h471q137 0 193 66q55 59 55 200q0 135 -58.5 199.5t-189.5 64.5h-471v-530z" />
<glyph unicode="&#xdf;" horiz-adv-x="1273" d="M61 909v113h80q0 203 76 303q86 115 285 115h162q362 0 362 -359q0 -215 -125 -247q311 -29 311 -394q0 -236 -96 -338t-328 -102h-253v141q41 0 116.5 -3t108.5 -3q158 0 227 53q90 68 90 252q0 203 -149 265q-90 39 -328 38v123q139 0 201 37q78 49 78 178 q0 219 -215 219h-148q-123 0 -175 -55t-52 -178v-1067h-148v909h-80z" />
<glyph unicode="&#xe0;" horiz-adv-x="1099" d="M109 340q0 141 88 213t231 72h158q180 0 258 -86v192q0 166 -189 166h-200q-90 0 -125 -23q-49 -31 -49 -116h-148v16q0 248 313 248h213q143 0 232 -61q100 -72 100 -209v-752h-145v86q-43 -86 -254 -86h-154q-178 0 -253.5 82t-75.5 258zM207 1386l84 101l317 -281 l-55 -51zM250 313q0 -104 57 -149q51 -37 162 -37h158q215 0 215 186q0 109 -64 150q-53 35 -168 35h-143q-109 0 -160 -37q-57 -43 -57 -148z" />
<glyph unicode="&#xe1;" horiz-adv-x="1099" d="M109 340q0 141 88 213t231 72h158q180 0 258 -86v192q0 166 -189 166h-200q-90 0 -125 -23q-49 -31 -49 -116h-148v16q0 248 313 248h213q143 0 232 -61q100 -72 100 -209v-752h-145v86q-43 -86 -254 -86h-154q-178 0 -253.5 82t-75.5 258zM250 313q0 -104 57 -149 q51 -37 162 -37h158q215 0 215 186q0 109 -64 150q-53 35 -168 35h-143q-109 0 -160 -37q-57 -43 -57 -148zM496 1206l317 281l84 -101l-346 -231z" />
<glyph unicode="&#xe2;" horiz-adv-x="1099" d="M109 340q0 141 88 213t231 72h158q180 0 258 -86v192q0 166 -189 166h-200q-90 0 -125 -23q-49 -31 -49 -116h-148v16q0 248 313 248h213q143 0 232 -61q100 -72 100 -209v-752h-145v86q-43 -86 -254 -86h-154q-178 0 -253.5 82t-75.5 258zM221 1165l291 289h82l283 -289 h-74l-250 156l-256 -156h-76zM250 313q0 -104 57 -149q51 -37 162 -37h158q215 0 215 186q0 109 -64 150q-53 35 -168 35h-143q-109 0 -160 -37q-57 -43 -57 -148z" />
<glyph unicode="&#xe3;" horiz-adv-x="1099" d="M109 340q0 141 88 213t231 72h158q180 0 258 -86v192q0 166 -189 166h-200q-90 0 -125 -23q-49 -31 -49 -116h-148v16q0 248 313 248h213q143 0 232 -61q100 -72 100 -209v-752h-145v86q-43 -86 -254 -86h-154q-178 0 -253.5 82t-75.5 258zM242 1210q12 90 61 148 q55 66 143 65q68 0 130.5 -57t103.5 -57q80 0 94 108h111q-6 -88 -54 -145q-53 -66 -137 -66q-88 0 -148.5 53.5t-105.5 53.5q-76 0 -90 -103h-108zM250 313q0 -104 57 -149q51 -37 162 -37h158q215 0 215 186q0 109 -64 150q-53 35 -168 35h-143q-109 0 -160 -37 q-57 -43 -57 -148z" />
<glyph unicode="&#xe4;" horiz-adv-x="1099" d="M109 340q0 141 88 213t231 72h158q180 0 258 -86v192q0 166 -189 166h-200q-90 0 -125 -23q-49 -31 -49 -116h-148v16q0 248 313 248h213q143 0 232 -61q100 -72 100 -209v-752h-145v86q-43 -86 -254 -86h-154q-178 0 -253.5 82t-75.5 258zM250 313q0 -104 57 -149 q51 -37 162 -37h158q215 0 215 186q0 109 -64 150q-53 35 -168 35h-143q-109 0 -160 -37q-57 -43 -57 -148zM289 1286v150h147v-150h-147zM653 1286v150h148v-150h-148z" />
<glyph unicode="&#xe5;" horiz-adv-x="1099" d="M109 340q0 141 88 213t231 72h158q180 0 258 -86v192q0 166 -189 166h-200q-90 0 -125 -23q-49 -31 -49 -116h-148v16q0 248 313 248h213q143 0 232 -61q100 -72 100 -209v-752h-145v86q-43 -86 -254 -86h-154q-178 0 -253.5 82t-75.5 258zM250 313q0 -104 57 -149 q51 -37 162 -37h158q215 0 215 186q0 109 -64 150q-53 35 -168 35h-143q-109 0 -160 -37q-57 -43 -57 -148zM381 1274v74q0 117 135 116h53q133 0 133 -116v-74q0 -117 -133 -117h-53q-135 0 -135 117zM426 1276q0 -74 90 -74h53q88 0 88 74v70q0 74 -88 73h-53 q-90 0 -90 -73v-70z" />
<glyph unicode="&#xe6;" horiz-adv-x="1810" d="M90 340q0 195 156 254q84 31 321 31q178 0 258 -86v192q0 166 -188 166h-201q-90 0 -127 -23q-47 -31 -47 -116h-147v16q0 248 313 248h213q199 0 281 -111q66 86 190 107q51 8 227 8q178 0 277 -86q106 -92 106 -266v-195h-747v-119q0 -170 108 -213q55 -23 260 -22 q131 0 181 37q61 43 61 164h137v-45q0 -193 -178 -252q-92 -31 -336 -31q-156 0 -235 55v-53h-146v86q-35 -70 -188 -84q-23 -2 -219 -2q-178 0 -254 82t-76 258zM231 313q0 -104 58 -149q51 -37 162 -37h157q215 0 215 186q0 109 -65 150q-51 35 -166 35h-143 q-111 0 -160 -37q-57 -43 -58 -148zM975 606h610q0 166 -37 221q-49 70 -205 70h-131q-147 0 -198 -74q-39 -59 -39 -217z" />
<glyph unicode="&#xe7;" horiz-adv-x="1036" d="M76 442v138q0 231 82 333q92 113 315 113h98q201 0 293 -80q96 -86 97 -282h-138q0 141 -50 187t-198 46h-106q-193 0 -238 -131q-20 -57 -20 -303q0 -170 37 -240q53 -98 205 -98h114q164 0 211 55q45 49 45 215h138v-51q0 -346 -371 -346q0 -209 -31 -248 q-41 -53 -250 -53v113q94 -2 121 16t27 74q0 12 -2 43v55q-215 0 -303 117q-76 102 -76 327z" />
<glyph unicode="&#xe8;" d="M76 422v178q0 426 368 426h131q178 0 279 -86q104 -92 104 -266v-195h-747v-119q0 -236 238 -235h131q131 0 182 37q59 43 59 164h137v-45q0 -283 -383 -283h-131q-207 0 -292 111q-76 96 -76 313zM176 1386l84 101l315 -281l-53 -51zM211 606h610q0 166 -37 221 q-47 70 -204 70h-131q-147 0 -197 -74q-41 -59 -41 -217z" />
<glyph unicode="&#xe9;" d="M76 422v178q0 426 368 426h131q178 0 279 -86q104 -92 104 -266v-195h-747v-119q0 -236 238 -235h131q131 0 182 37q59 43 59 164h137v-45q0 -283 -383 -283h-131q-207 0 -292 111q-76 96 -76 313zM211 606h610q0 166 -37 221q-47 70 -204 70h-131q-147 0 -197 -74 q-41 -59 -41 -217zM444 1206l316 281l84 -101l-346 -231z" />
<glyph unicode="&#xea;" d="M76 422v178q0 426 368 426h131q178 0 279 -86q104 -92 104 -266v-195h-747v-119q0 -236 238 -235h131q131 0 182 37q59 43 59 164h137v-45q0 -283 -383 -283h-131q-207 0 -292 111q-76 96 -76 313zM174 1165l291 289h82l282 -289h-73l-250 156l-258 -156h-74zM211 606 h610q0 166 -37 221q-47 70 -204 70h-131q-147 0 -197 -74q-41 -59 -41 -217z" />
<glyph unicode="&#xeb;" d="M76 422v178q0 426 368 426h131q178 0 279 -86q104 -92 104 -266v-195h-747v-119q0 -236 238 -235h131q131 0 182 37q59 43 59 164h137v-45q0 -283 -383 -283h-131q-207 0 -292 111q-76 96 -76 313zM211 606h610q0 166 -37 221q-47 70 -204 70h-131q-147 0 -197 -74 q-41 -59 -41 -217zM260 1286v150h148v-150h-148zM625 1286v150h147v-150h-147z" />
<glyph unicode="&#xec;" horiz-adv-x="354" d="M-43 1386l84 101l317 -281l-55 -51zM250 0v1022h147v-1022h-147z" />
<glyph unicode="&#xed;" horiz-adv-x="354" d="M-35 0v1022h148v-1022h-148zM-12 1206l315 281l84 -101l-346 -231z" />
<glyph unicode="&#xee;" horiz-adv-x="354" d="M-152 1165l291 289h82l283 -289h-72l-252 156l-256 -156h-76zM102 0v1022h148v-1022h-148z" />
<glyph unicode="&#xef;" horiz-adv-x="354" d="M-80 1286v150h148v-150h-148zM96 0v1022h148v-1022h-148zM285 1286v150h147v-150h-147z" />
<glyph unicode="&#xf0;" horiz-adv-x="1056" d="M88 399v205q0 211 80 311q92 111 297 111h131q152 0 240 -61q-8 174 -148 307l-133 -133l-94 96l112 115q-55 25 -213 24v125h101q115 0 209 -53l137 139l94 -98l-119 -119q188 -176 189 -412v-557q0 -205 -84 -301q-90 -100 -291 -100h-131q-207 0 -295 100 q-82 92 -82 301zM223 399q0 -152 45 -209q53 -63 201 -63h123q145 0 196 63q48 57 48 209v205q0 162 -43 221q-51 72 -201 72h-123q-154 0 -205 -72q-41 -57 -41 -221v-205z" />
<glyph unicode="&#xf1;" horiz-adv-x="1181" d="M113 0v1022h147v-137q70 137 277 137h104q430 0 430 -401v-621h-147v621q0 147 -69 213.5t-214 66.5h-100q-281 0 -281 -280v-621h-147zM268 1210q12 90 62 148q55 66 143 65q68 0 130.5 -57t103.5 -57q80 0 94 108h110q-6 -88 -55 -145q-53 -66 -135 -66 q-88 0 -149.5 53.5t-104.5 53.5q-78 0 -90 -103h-109z" />
<glyph unicode="&#xf2;" d="M76 399v205q0 211 82 311q88 111 295 111h131q205 0 295 -111q80 -100 79 -311v-205q0 -207 -81 -301q-88 -100 -293 -100h-131q-205 0 -293 100q-84 92 -84 301zM178 1386l84 101l318 -281l-56 -51zM211 399q0 -152 47 -209q51 -63 199 -63h123q145 0 198 63 q45 57 45 209v205q0 162 -41 221q-51 72 -202 72h-123q-154 0 -205 -72q-41 -57 -41 -221v-205z" />
<glyph unicode="&#xf3;" d="M76 399v205q0 211 82 311q88 111 295 111h131q205 0 295 -111q80 -100 79 -311v-205q0 -207 -81 -301q-88 -100 -293 -100h-131q-205 0 -293 100q-84 92 -84 301zM211 399q0 -152 47 -209q51 -63 199 -63h123q145 0 198 63q45 57 45 209v205q0 162 -41 221 q-51 72 -202 72h-123q-154 0 -205 -72q-41 -57 -41 -221v-205zM446 1206l318 281l84 -101l-346 -231z" />
<glyph unicode="&#xf4;" d="M76 399v205q0 211 82 311q88 111 295 111h131q205 0 295 -111q80 -100 79 -311v-205q0 -207 -81 -301q-88 -100 -293 -100h-131q-205 0 -293 100q-84 92 -84 301zM186 1165l291 289h82l283 -289h-74l-250 156l-258 -156h-74zM211 399q0 -152 47 -209q51 -63 199 -63h123 q145 0 198 63q45 57 45 209v205q0 162 -41 221q-51 72 -202 72h-123q-154 0 -205 -72q-41 -57 -41 -221v-205z" />
<glyph unicode="&#xf5;" d="M76 399v205q0 211 82 311q88 111 295 111h131q205 0 295 -111q80 -100 79 -311v-205q0 -207 -81 -301q-88 -100 -293 -100h-131q-205 0 -293 100q-84 92 -84 301zM188 1210q12 90 62 148q55 66 143 65q68 0 130.5 -57t103.5 -57q80 0 94 108h110q-6 -88 -53 -145 q-53 -66 -137 -66q-88 0 -148.5 53.5t-105.5 53.5q-76 0 -90 -103h-109zM211 399q0 -152 47 -209q51 -63 199 -63h123q145 0 198 63q45 57 45 209v205q0 162 -41 221q-51 72 -202 72h-123q-154 0 -205 -72q-41 -57 -41 -221v-205z" />
<glyph unicode="&#xf6;" d="M76 399v205q0 211 82 311q88 111 295 111h131q205 0 295 -111q80 -100 79 -311v-205q0 -207 -81 -301q-88 -100 -293 -100h-131q-205 0 -293 100q-84 92 -84 301zM211 399q0 -152 47 -209q51 -63 199 -63h123q145 0 198 63q45 57 45 209v205q0 162 -41 221 q-51 72 -202 72h-123q-154 0 -205 -72q-41 -57 -41 -221v-205zM262 1286v150h150v-150h-150zM627 1286v150h147v-150h-147z" />
<glyph unicode="&#xf7;" horiz-adv-x="886" d="M117 526v150h653v-150h-653zM373 184v162h159v-162h-159zM373 854v162h159v-162h-159z" />
<glyph unicode="&#xf8;" horiz-adv-x="1056" d="M88 399v205q0 432 410 432q82 0 184 -16l55 115h121l-67 -144q180 -78 180 -387v-205q0 -416 -412 -415q-102 0 -231 26l-39 -84h-121l59 123q-139 86 -139 350zM223 399q0 -170 62 -225l340 723h-156q-154 0 -205 -72q-41 -57 -41 -221v-205zM385 133q37 -6 84 -6h123 q145 0 196 63q48 57 48 209v205q0 225 -101 270z" />
<glyph unicode="&#xf9;" horiz-adv-x="1130" d="M98 399v623h148v-633q0 -172 96 -221q59 -31 252 -31q291 0 291 252v633h147v-1022h-143v119q-59 -84 -172 -109q-57 -12 -209 -12q-213 0 -311.5 95t-98.5 306zM197 1386l84 101l315 -281l-55 -51z" />
<glyph unicode="&#xfa;" horiz-adv-x="1130" d="M98 399v623h148v-633q0 -172 96 -221q59 -31 252 -31q291 0 291 252v633h147v-1022h-143v119q-59 -84 -172 -109q-57 -12 -209 -12q-213 0 -311.5 95t-98.5 306zM498 1206l317 281l84 -101l-346 -231z" />
<glyph unicode="&#xfb;" horiz-adv-x="1130" d="M98 399v623h148v-633q0 -172 96 -221q59 -31 252 -31q291 0 291 252v633h147v-1022h-143v119q-59 -84 -172 -109q-57 -12 -209 -12q-213 0 -311.5 95t-98.5 306zM233 1165l293 289h82l281 -289h-72l-250 156l-258 -156h-76z" />
<glyph unicode="&#xfc;" horiz-adv-x="1130" d="M98 399v623h148v-633q0 -172 96 -221q59 -31 252 -31q291 0 291 252v633h147v-1022h-143v119q-59 -84 -172 -109q-57 -12 -209 -12q-213 0 -311.5 95t-98.5 306zM305 1286v150h148v-150h-148zM670 1286v150h147v-150h-147z" />
<glyph unicode="&#xfd;" horiz-adv-x="1003" d="M31 -307q129 0 247.5 90t163.5 215h-12l-379 1024h156l307 -829l309 829h152l-354 -969q-80 -215 -220 -344q-162 -145 -370 -145v129zM463 1206l315 281l84 -101l-346 -231z" />
<glyph unicode="&#xfe;" horiz-adv-x="1173" d="M102 -414v1850h148v-523q55 70 129 97q59 18 162 18h118q268 0 355 -174q59 -113 59 -412q0 -442 -418 -442h-118q-217 0 -287 125v-539h-148zM246 442q0 -162 59 -233q68 -80 227 -80h99q158 0 226.5 76.5t68.5 236.5v138q0 160 -62 237q-68 84 -221 84h-106 q-291 0 -291 -330v-129z" />
<glyph unicode="&#xff;" horiz-adv-x="1005" d="M16 -307q129 0 249 90t163 215h-12l-379 1024h156l307 -829l309 829h152l-355 -969q-78 -215 -219 -344q-160 -145 -371 -145v129zM240 1286v150h147v-150h-147zM604 1286v150h148v-150h-148z" />
<glyph unicode="&#x152;" horiz-adv-x="2193" d="M100 573v320q0 281 103 410q115 141 387 141h239q223 0 336 -88v80h928v-150h-768v-471h733v-149h-733v-516h768v-150h-928v86q-115 -86 -348 -86h-227q-281 0 -393 147q-96 129 -97 426zM248 573q0 -233 55 -317q72 -106 287 -106h227q223 0 297 102q60 81 60 321v320 q0 219 -68 305q-76 96 -285 96h-231q-205 0 -279 -100q-63 -84 -63 -301v-320z" />
<glyph unicode="&#x153;" horiz-adv-x="1826" d="M98 399v205q0 270 125 357q98 66 383 65q223 0 312 -133q61 98 192 123q55 10 238 10q178 0 276 -86q106 -92 107 -266v-195h-748v-119q0 -170 109 -213q55 -23 260 -22q131 0 180 37q61 43 61 164h138v-45q0 -193 -179 -252q-92 -31 -335 -31q-223 0 -302 123 q-63 -92 -200 -115q-51 -8 -240 -8q-205 0 -295 100q-82 94 -82 301zM233 399q0 -152 46 -209q53 -63 200 -63h123q145 0 197 63q47 57 47 209v205q0 162 -43 221q-51 72 -201 72h-123q-154 0 -205 -72q-41 -57 -41 -221v-205zM983 606h610q0 166 -37 221q-49 70 -204 70 h-131q-147 0 -199 -74q-39 -59 -39 -217z" />
<glyph unicode="&#x178;" horiz-adv-x="1171" d="M55 1436h160l385 -637l387 637h160l-473 -768v-668h-148v668zM344 1536v143h141v-143h-141zM702 1536v143h142v-143h-142z" />
<glyph unicode="&#x2c6;" horiz-adv-x="837" d="M92 1165l291 289h82l283 -289h-74l-250 156l-258 -156h-74z" />
<glyph unicode="&#x2dc;" horiz-adv-x="763" d="M61 1210q12 90 62 148q55 66 143 65q63 0 125 -53t109 -53q80 0 94 100h111q-6 -88 -56 -145q-53 -66 -135 -66q-88 0 -149.5 53.5t-104.5 53.5q-78 0 -90 -103h-109z" />
<glyph unicode="&#x2000;" horiz-adv-x="908" />
<glyph unicode="&#x2001;" horiz-adv-x="1817" />
<glyph unicode="&#x2002;" horiz-adv-x="908" />
<glyph unicode="&#x2003;" horiz-adv-x="1817" />
<glyph unicode="&#x2004;" horiz-adv-x="605" />
<glyph unicode="&#x2005;" horiz-adv-x="454" />
<glyph unicode="&#x2006;" horiz-adv-x="302" />
<glyph unicode="&#x2007;" horiz-adv-x="302" />
<glyph unicode="&#x2008;" horiz-adv-x="227" />
<glyph unicode="&#x2009;" horiz-adv-x="363" />
<glyph unicode="&#x200a;" horiz-adv-x="100" />
<glyph unicode="&#x2010;" horiz-adv-x="868" d="M106 526v150h654v-150h-654z" />
<glyph unicode="&#x2011;" horiz-adv-x="868" d="M106 526v150h654v-150h-654z" />
<glyph unicode="&#x2012;" horiz-adv-x="868" d="M106 526v150h654v-150h-654z" />
<glyph unicode="&#x2013;" horiz-adv-x="1171" d="M117 526v150h938v-150h-938z" />
<glyph unicode="&#x2014;" horiz-adv-x="1933" d="M184 526v150h1565v-150h-1565z" />
<glyph unicode="&#x2018;" horiz-adv-x="239" d="M41 1128v267q0 74 57 112h76q-59 -53 -59 -112v-107h86v-160h-160z" />
<glyph unicode="&#x2019;" horiz-adv-x="362" d="M100 1276v160h160v-265q0 -76 -57 -114h-76q59 53 59 114v105h-86z" />
<glyph unicode="&#x201a;" horiz-adv-x="374" d="M109 156v159h159v-266q0 -74 -57 -112h-76q59 53 60 112v107h-86z" />
<glyph unicode="&#x201c;" horiz-adv-x="610" d="M100 1128v267q0 74 58 112h75q-59 -53 -59 -112v-107h86v-160h-160zM350 1128v267q0 74 58 112h75q-59 -53 -59 -112v-107h86v-160h-160z" />
<glyph unicode="&#x201d;" horiz-adv-x="608" d="M100 1276v160h160v-265q0 -76 -57 -114h-76q59 53 59 114v105h-86zM350 1276v160h160v-265q0 -76 -57 -114h-76q59 53 59 114v105h-86z" />
<glyph unicode="&#x201e;" horiz-adv-x="647" d="M119 156v159h160v-266q0 -74 -58 -112h-76q59 53 60 112v107h-86zM369 156v159h159v-266q0 -74 -57 -112h-76q59 53 60 112v107h-86z" />
<glyph unicode="&#x2022;" horiz-adv-x="956" d="M141 563q0 139 98.5 239.5t239.5 100.5q139 0 238.5 -100.5t99.5 -239.5t-99.5 -240.5t-238.5 -101.5q-141 0 -239.5 101.5t-98.5 240.5z" />
<glyph unicode="&#x2026;" horiz-adv-x="1632" d="M193 0v162h159v-162h-159zM737 0v162h160v-162h-160zM1282 0v162h160v-162h-160z" />
<glyph unicode="&#x202f;" horiz-adv-x="363" />
<glyph unicode="&#x2039;" horiz-adv-x="718" d="M115 575l422 426l69 -67l-356 -359l354 -356l-69 -69z" />
<glyph unicode="&#x203a;" horiz-adv-x="710" d="M111 934l69 67l422 -426l-420 -423l-69 69l354 354z" />
<glyph unicode="&#x205f;" horiz-adv-x="454" />
<glyph unicode="&#x2122;" horiz-adv-x="819" d="M96 1382v27h254v-27h-112v-335h-27v335h-115zM340 1051l80 362l112 -307l117 307l76 -362h-29l-53 270l-111 -289l-108 289l-57 -270h-27z" />
<glyph unicode="&#xe000;" horiz-adv-x="1024" d="M0 0v1024h1024v-1024h-1024z" />
</font>
</defs>
</svg>
