<?xml version="1.0" standalone="no"?> <!DOCTYPE svg PUBLIC "-//W3C//DTD SVG 1.0//EN" "http://www.w3.org/TR/2001/REC-SVG-20010904/DTD/svg10.dtd" > <svg xmlns="http://www.w3.org/2000/svg" width="100%" height="100%">
<defs >
<font id="MinimaSSK" horiz-adv-x="972" ><font-face
    font-family="MinimaSSK"
    units-per-em="2048"
    panose-1="0 0 4 0 0 0 0 0 0 0"
    ascent="1817"
    descent="-438"
    alphabetic="0" />
<missing-glyph horiz-adv-x="1024" d="M129 0V1638H897V0H129ZM256 129H768V1511H256V129Z" />
<glyph unicode=" " glyph-name="space" horiz-adv-x="792" />
<glyph unicode="!" glyph-name="exclam" horiz-adv-x="387" d="M262 346H125V1436H262V346ZM262 0H125V162H262V0Z" />
<glyph unicode="&quot;" glyph-name="quotedbl" horiz-adv-x="477" d="M432 1464L410 1104H342L319 1464H432ZM160 1464L137 1104H68L45 1464H160Z" />
<glyph unicode="#" glyph-name="numbersign" horiz-adv-x="1062" d="M1026 1130L999 1016H801L754 823H954L924 707H725L672 500H561L612 707H362L309 500H199L252 707H37L61 823H279L328 1016H111L141 1130H356L410 1346H522L467 1130H717L772 1346H883L829 1130H1026ZM690
1016H440L389 823H641L690 1016Z" />
<glyph unicode="$" glyph-name="dollar" horiz-adv-x="1329" d="M1251 414Q1251 168 1108 76Q995 2 735 2V-184H588V2Q342 2 227 80Q90 174 90 410H238Q242 254 342 195Q420 152 588 152V662Q318 662 219 713Q78 791 78 1030Q78 1278 217 1366Q326 1436 588 1436V1573H735V1436Q997
1436 1100 1370Q1231 1286 1231 1042H1081Q1081 1204 985 1253Q922 1286 735 1286V811Q999 811 1106 745Q1251 660 1251 414ZM588 811V1286H524Q362 1286 305 1239Q237 1188 238 1030Q238 897 307 850Q364 811 504 811H588ZM1092 414Q1092 553 1028 610Q969 661
825 662H735V152H815Q967 152 1029 209T1092 414Z" />
<glyph unicode="%" glyph-name="percent" horiz-adv-x="2029" d="M1921 373Q1921 170 1851 88Q1773 0 1577 0H1497Q1298 0 1222 85T1145 373V500Q1145 733 1237 811Q1319 881 1554 881Q1759 881 1840 794T1921 500V373ZM1280 1505L860 -68H758L1178 1505H1280ZM885
924Q885 721 813 641Q737 553 541 553H461Q262 553 186 637T109 924V1053Q109 1286 201 1364Q283 1434 518 1434Q723 1434 804 1347T885 1053V924ZM1798 369V506Q1798 658 1750 707T1550 756H1497Q1354 756 1311 705T1268 506V369Q1268 226 1316 177T1505 127H1563Q1704
127 1751 176T1798 369ZM762 920V1059Q762 1211 714 1259T514 1307H461Q318 1307 275 1257T231 1059V920Q231 779 279 729T469 678H526Q667 678 714 727T762 920Z" />
<glyph unicode="&amp;" glyph-name="ampersand" horiz-adv-x="1466" d="M1378 96L1278 0L1167 106Q1017 0 793 0H631Q350 0 231 86Q90 188 90 455Q90 807 399 891Q336 975 336 1112Q336 1309 489 1384Q595 1435 815 1436Q1020 1436 1114 1333T1214 1020H1067Q1061
1217 971 1268Q914 1299 696 1298Q471 1298 471 1100Q471 967 770 666L1155 307Q1184 370 1184 606H1333Q1333 303 1270 207L1378 96ZM1055 207L479 788Q225 725 225 455Q225 265 326 195Q406 140 610 139H807Q959 139 1055 207Z" />
<glyph unicode="&apos;" glyph-name="quotesingle" horiz-adv-x="235" d="M176 1464L154 1104H84L61 1464H176Z" />
<glyph unicode="(" glyph-name="parenleft" horiz-adv-x="495" d="M442 -252Q239 -252 146 -152T53 154V1161Q53 1567 442 1567V1421Q200 1423 201 1157V158Q201 -110 442 -109V-252Z" />
<glyph unicode=")" glyph-name="parenright" horiz-adv-x="512" d="M451 154Q451 -51 359 -151T61 -252V-109Q303 -111 303 158V1157Q303 1423 61 1421V1567Q450 1567 451 1161V154Z" />
<glyph unicode="*" glyph-name="asterisk" horiz-adv-x="704" d="M637 1014Q637 985 617 963T567 940Q526 940 453 1016L365 1114Q381 1059 399 1006Q422 938 422 893Q422 815 348 815Q278 815 279 893Q279 938 301 1004L342 1112L256 1010Q186 934 143 934Q112
934 91 955T70 1006Q70 1063 184 1098Q258 1116 332 1133Q256 1145 182 1159Q69 1188 70 1249Q70 1278 89 1299T139 1321Q178 1321 252 1247L344 1151Q321 1204 301 1260Q278 1326 279 1370Q279 1448 350 1448Q422 1448 422 1370Q422 1325 399 1260L362 1151L444
1253Q512 1327 557 1327Q586 1327 607 1306T629 1255Q629 1198 518 1163Q446 1149 375 1133Q449 1121 524 1106Q637 1077 637 1014Z" />
<glyph unicode="+" glyph-name="plus" horiz-adv-x="950" d="M840 537H543V236H408V537H111V674H408V973H543V674H840V537Z" />
<glyph unicode="," glyph-name="comma" horiz-adv-x="364" d="M262 -117Q262 -219 102 -219V-147Q186 -147 186 -90V0H102V162H262V-117Z" />
<glyph unicode="-" glyph-name="uni2010" horiz-adv-x="868" d="M760 526H106V676H760V526Z" />
<glyph unicode="." glyph-name="period" horiz-adv-x="364" d="M262 0H102V162H262V0Z" />
<glyph unicode="/" glyph-name="slash" horiz-adv-x="604" d="M598 1505L141 -184H6L461 1505H598Z" />
<glyph unicode="0" glyph-name="zero" horiz-adv-x="1259" d="M1202 524Q1202 237 1090 119T696 0H549Q281 0 166 129Q57 250 57 524V895Q57 1174 162 1300Q277 1435 549 1436H696Q977 1436 1094 1307Q1203 1184 1202 895V524ZM1055 524V895Q1055 1118 984 1197T696
1276H549Q342 1276 268 1188Q205 1110 205 895V524Q205 323 276 240Q354 150 549 150H696Q907 150 981 229T1055 524Z" />
<glyph unicode="1" glyph-name="one" horiz-adv-x="1259" d="M930 0H782V1286L432 922L330 1022L733 1436H930V0Z" />
<glyph unicode="2" glyph-name="two" horiz-adv-x="1259" d="M1212 993Q1212 678 948 586L457 489Q193 415 193 150H1206V0H45V213Q45 496 309 590L801 690Q1065 762 1065 993Q1065 1173 971 1239Q891 1294 698 1294H571Q403 1294 324 1251Q220 1194 215 1042H55Q55
1443 571 1444H698Q962 1444 1081 1352Q1212 1247 1212 993Z" />
<glyph unicode="3" glyph-name="three" horiz-adv-x="1259" d="M1202 420Q1202 180 1069 84Q956 0 707 0H471Q242 0 149 89T55 406H203Q203 254 259 201T471 147H739Q909 147 975 197Q1055 256 1055 420Q1055 570 973 629Q910 672 774 672Q739 672 665 669T551
666V815Q576 815 629 813H713Q871 813 948 852Q1054 907 1055 1051Q1055 1188 969 1243Q899 1286 752 1286H471Q313 1286 258 1231T203 1020H55V1081Q55 1435 471 1436H707Q947 1436 1061 1364Q1202 1274 1202 1051Q1202 797 1004 750Q1202 711 1202 420Z" />
<glyph unicode="4" glyph-name="four" horiz-adv-x="1259" d="M1217 324H1022V0H874V324H43V459L864 1436H1022V459H1217V324ZM874 459V1245L225 459H874Z" />
<glyph unicode="5" glyph-name="five" horiz-adv-x="1259" d="M1184 463Q1184 205 1077 103T709 0H532Q73 0 74 408H221Q227 150 532 150H705Q920 150 985 242Q1034 312 1034 535Q1034 707 958 775T705 844H539Q420 844 375 836Q273 818 248 750H98V1436H1145V1286H246V897Q289
963 383 983Q436 993 551 993H705Q986 993 1092 862Q1184 746 1184 463Z" />
<glyph unicode="6" glyph-name="six" horiz-adv-x="1259" d="M1208 422Q1208 -6 774 -6H494Q52 -6 51 391V1014Q51 1247 174 1348Q287 1442 524 1442H692Q1198 1442 1198 1042H1049Q1045 1196 936 1251Q860 1290 684 1290H541Q353 1290 283 1241Q199 1182 199
1006V766Q260 844 346 872Q414 892 532 893H752Q998 893 1103 783T1208 422ZM1061 406V479Q1061 631 967 692Q889 745 729 745H528Q366 745 289 688Q199 622 199 471V399Q199 243 295 186Q371 143 541 143H729Q889 143 967 195Q1061 256 1061 406Z" />
<glyph unicode="7" glyph-name="seven" horiz-adv-x="1259" d="M1186 1253L403 0H231L1057 1298H74V1436H1186V1253Z" />
<glyph unicode="8" glyph-name="eight" horiz-adv-x="1259" d="M1184 1030Q1184 905 1113 823T920 737Q1082 719 1139 610Q1182 530 1182 352Q1182 141 1065 57Q965 -17 745 -16H512Q258 -16 167 77T76 422Q76 707 338 737Q178 743 117 860Q74 944 74 1120Q74
1450 469 1450H788Q1017 1450 1106 1348Q1184 1257 1184 1030ZM1036 1059Q1036 1215 967 1270Q906 1319 743 1319H514Q352 1319 291 1270Q221 1215 221 1059Q221 918 305 862Q371 819 522 819H735Q887 819 954 862Q1036 918 1036 1059ZM1036 389Q1036 543 965 600Q904
649 743 649H514Q356 649 293 600Q221 543 221 389Q221 231 291 178Q350 133 514 133H743Q907 133 967 178Q1036 231 1036 389Z" />
<glyph unicode="9" glyph-name="nine" horiz-adv-x="1259" d="M1208 467Q1208 207 1092 101T713 -6H541Q62 -6 61 391H209Q213 248 311 190Q389 143 545 143H696Q905 143 982 211T1059 483V668Q1008 588 901 559Q833 541 705 541H537Q254 541 152 643T49 1022Q49
1442 520 1442H705Q1209 1442 1208 1018V467ZM1059 928V1018Q1059 1184 952 1245Q872 1290 688 1290H524Q360 1290 285 1233Q197 1165 197 1010V938Q197 788 303 729Q381 686 545 686H684Q856 686 940 725Q1059 781 1059 928Z" />
<glyph unicode=":" glyph-name="colon" horiz-adv-x="370" d="M264 752H104V911H264V752ZM264 0H104V162H264V0Z" />
<glyph unicode=";" glyph-name="semicolon" horiz-adv-x="370" d="M264 752H104V911H264V752ZM264 -117Q264 -183 215 -205Q182 -219 104 -219V-147Q151 -147 166 -141Q189 -129 188 -90V0H104V162H264V-117Z" />
<glyph unicode="&lt;" glyph-name="less" horiz-adv-x="751" d="M670 229L84 633L670 1034V872L324 633L670 391V229Z" />
<glyph unicode="=" glyph-name="equal" horiz-adv-x="876" d="M766 686H113V836H766V686ZM766 354H113V502H766V354Z" />
<glyph unicode="&gt;" glyph-name="greater" horiz-adv-x="739" d="M664 633L78 229V391L424 633L78 872V1034L664 633Z" />
<glyph unicode="?" glyph-name="question" horiz-adv-x="1118" d="M1081 1040Q1081 819 944 733L690 647Q553 600 553 469V346H399V487Q399 675 539 743L797 825Q934 880 934 1040Q934 1200 856 1260Q788 1311 621 1311H467Q305 1311 247 1256T184 1042H37Q37
1271 130 1360T455 1450H621Q863 1450 967 1366Q1081 1271 1081 1040ZM561 0H406V162H561V0Z" />
<glyph unicode="@" glyph-name="at" horiz-adv-x="1327" d="M1249 893Q1249 760 1194 678Q1128 582 1001 582Q868 582 856 729Q790 582 604 582Q485 582 412 657T338 852Q338 985 426 1075T647 1165Q821 1165 881 1008L903 1153H971L942 958Q926 841 926 764Q926
655 1012 655Q1098 655 1143 739Q1176 807 1176 901Q1176 1124 1033 1262T664 1401Q441 1401 296 1257T150 889Q150 666 295 523T664 379Q754 379 846 408Q955 441 1001 498L1047 442Q996 376 866 340Q760 307 657 307Q403 307 240 469T76 885Q76 1141 242 1305T664
1470Q918 1470 1083 1308T1249 893ZM831 885Q831 973 784 1030Q731 1093 645 1094Q545 1094 481 1026T416 856Q416 770 468 712T606 653Q706 653 768 719T831 885Z" />
<glyph unicode="A" glyph-name="A" horiz-adv-x="1359" d="M1329 0H1176L1049 346H317L190 0H33L563 1436H797L1329 0ZM989 494L686 1329H678L375 494H989Z" />
<glyph unicode="B" glyph-name="B" horiz-adv-x="1239" d="M1161 422Q1161 184 1026 86Q909 0 662 0H76V1436H592Q1088 1436 1087 1077Q1087 831 958 764Q1161 690 1161 422ZM940 1051Q940 1184 858 1239Q790 1286 649 1286H223V827H651Q796 827 860 866Q940 916
940 1051ZM1014 420Q1014 567 932 627Q862 678 707 678H223V150H717Q1014 150 1014 420Z" />
<glyph unicode="C" glyph-name="C" horiz-adv-x="1300" d="M1260 406Q1260 142 1071 55Q950 0 649 0Q354 0 221 86Q98 164 63 346Q43 463 43 788Q43 1189 175 1319T702 1450Q1257 1450 1257 1042H1110Q1110 1220 942 1274Q854 1301 625 1300Q398 1300 299 1223Q215
1155 197 1001Q191 946 190 657Q190 409 232 306T395 170Q485 147 743 147Q917 147 999 190Q1112 249 1112 406H1260Z" />
<glyph unicode="D" glyph-name="D" horiz-adv-x="1341" d="M1247 602Q1247 287 1155 156Q1044 0 748 0H94V1436H748Q1039 1436 1153 1274Q1247 1137 1247 834V602ZM1100 602V834Q1100 1063 1038 1163Q958 1290 748 1290H242V145H748Q973 145 1047 268Q1100 358 1100 602Z" />
<glyph unicode="E" glyph-name="E" horiz-adv-x="1007" d="M963 0H47V1436H963V1290H195V815H928V670H195V145H963V0Z" />
<glyph unicode="F" glyph-name="F" horiz-adv-x="1026" d="M987 1290H219V815H952V670H219V0H72V1436H987V1290Z" />
<glyph unicode="G" glyph-name="G" horiz-adv-x="1308" d="M1264 573Q1264 270 1163 143Q1048 0 760 0H532Q249 0 139 147Q43 276 43 573V893Q43 1174 145 1303Q260 1444 532 1444H772Q991 1444 1108 1354Q1229 1258 1255 1042H1106Q1086 1187 995 1245Q919 1294
764 1294H532Q327 1294 254 1194Q191 1108 190 893V573Q190 340 246 256Q318 150 532 150H760Q969 150 1042 236Q1112 316 1116 532H682V680H1264V573Z" />
<glyph unicode="H" glyph-name="H" horiz-adv-x="1249" d="M1153 0H1006V666H244V0H94V1436H244V815H1006V1436H1153V0Z" />
<glyph unicode="I" glyph-name="I" horiz-adv-x="352" d="M250 0H102V1436H250V0Z" />
<glyph unicode="J" glyph-name="J" horiz-adv-x="1138" d="M1026 436Q1026 229 920 115T608 0H469Q236 0 143 131Q67 237 68 479H215Q215 301 250 238Q301 146 467 145H602Q878 145 879 438V1436H1026V436Z" />
<glyph unicode="K" glyph-name="K" horiz-adv-x="1296" d="M1284 0H1063L367 707H205V0H55V1436H205V842H360L946 1436H1159L504 780L1284 0Z" />
<glyph unicode="L" glyph-name="L" horiz-adv-x="1032" d="M1004 0H88V1436H236V150H1004V0Z" />
<glyph unicode="M" glyph-name="M" horiz-adv-x="1761" d="M1638 0H1491V1307L930 0H827L264 1307V0H121V1436H367L885 225L1395 1436H1638V0Z" />
<glyph unicode="N" glyph-name="N" horiz-adv-x="1417" d="M1325 0H1112L240 1321V0H92V1436H336L1178 150V1436H1325V0Z" />
<glyph unicode="O" glyph-name="O" horiz-adv-x="1419" d="M1321 573Q1321 270 1219 143Q1106 0 817 0H590Q307 0 197 147Q101 276 100 573V893Q100 1174 203 1303Q318 1444 590 1444H829Q1101 1444 1217 1303Q1321 1176 1321 893V573ZM1174 573V893Q1174 1112
1106 1198Q1030 1294 821 1294H590Q385 1294 309 1194Q248 1110 248 893V573Q248 340 303 256Q373 150 590 150H817Q1038 150 1112 252Q1174 333 1174 573Z" />
<glyph unicode="P" glyph-name="P" horiz-adv-x="1132" d="M1077 1022Q1077 774 936 678Q827 602 598 602Q537 602 406 609T211 616V0H53V1436H682Q891 1436 984 1336T1077 1022ZM930 1026Q930 1161 873 1225T682 1290H211V762H682Q819 762 874 823T930 1026Z" />
<glyph unicode="Q" glyph-name="Q" horiz-adv-x="1419" d="M1348 125L1270 0L1137 84Q1022 0 791 0H563Q280 0 170 147Q74 276 74 573V893Q74 1174 176 1303Q291 1444 563 1444H803Q1075 1444 1190 1303Q1294 1176 1294 893V573Q1294 331 1229 201L1348 125ZM1147
573V893Q1147 1112 1079 1198Q1003 1294 795 1294H563Q358 1294 285 1194Q222 1110 221 893V573Q221 340 276 256Q348 150 563 150H791Q928 150 993 178L618 418L707 537L1104 281Q1147 372 1147 573Z" />
<glyph unicode="R" glyph-name="R" horiz-adv-x="1191" d="M1110 0H963V506Q963 682 791 682H229V0H82V1436H729Q911 1436 1010 1341T1110 1063Q1110 801 950 760Q1110 729 1110 539V0ZM963 1067Q963 1290 745 1290H229V827H745Q870 827 918 887Q963 940 963 1067Z" />
<glyph unicode="S" glyph-name="S" horiz-adv-x="1200" d="M1161 373Q1161 0 705 0H475Q252 0 153 94T53 408H201Q201 258 260 204T473 150H702Q870 150 934 197Q1012 254 1012 410Q1012 570 905 627Q829 668 657 668H580Q529 666 502 666Q283 666 184 729Q41
821 41 1073Q41 1435 467 1436H688Q932 1436 1034 1354Q1149 1262 1149 1030H1001Q999 1175 936 1230T727 1286H453Q299 1286 244 1228T188 1020Q188 893 285 848Q353 815 512 815H585H657Q895 815 1004 748Q1161 647 1161 373Z" />
<glyph unicode="T" glyph-name="T" horiz-adv-x="1277" d="M1233 1290H723V0H575V1290H63V1436H1233V1290Z" />
<glyph unicode="U" glyph-name="U" horiz-adv-x="1263" d="M1184 440Q1184 211 1079 106T745 0H512Q80 0 80 436V1436H227V434Q227 282 294 214T512 145H745Q907 145 971 208T1036 434V1436H1184V440Z" />
<glyph unicode="V" glyph-name="V" horiz-adv-x="1249" d="M1231 1436L711 0H539L18 1436H174L625 180L1075 1436H1231Z" />
<glyph unicode="W" glyph-name="W" horiz-adv-x="2148" d="M2124 1436L1655 0H1483L1083 1235L686 0H520L53 1436H207L606 188L1004 1436H1169L1569 188L1968 1436H2124Z" />
<glyph unicode="X" glyph-name="X" horiz-adv-x="1339" d="M1296 0H1126L672 690L213 0H43L547 766L109 1436H279L672 834L1061 1436H1235L795 768L1296 0Z" />
<glyph unicode="Y" glyph-name="Y" horiz-adv-x="1171" d="M1147 1436L674 668V0H526V668L55 1436H215L600 799L987 1436H1147Z" />
<glyph unicode="Z" glyph-name="Z" horiz-adv-x="1138" d="M1096 0H45V117L899 1286H45V1436H1096V1321L256 150H1096V0Z" />
<glyph unicode="[" glyph-name="bracketleft" horiz-adv-x="518" d="M408 -231L113 -229V1575H399V1495H250V-154L408 -158V-231Z" />
<glyph unicode="\" glyph-name="backslash" horiz-adv-x="595" d="M594 -184H459L2 1505H139L594 -184Z" />
<glyph unicode="]" glyph-name="bracketright" horiz-adv-x="518" d="M406 -229L113 -231V-158L270 -154V1495H119V1575H406V-229Z" />
<glyph unicode="^" glyph-name="asciicircum" horiz-adv-x="819" d="M752 700H684L410 1133L135 700H70L369 1325H451L752 700Z" />
<glyph unicode="_" glyph-name="underscore" horiz-adv-x="796" d="M811 -135H-14V-53H811V-135Z" />
<glyph unicode="`" glyph-name="grave" horiz-adv-x="546" d="M473 1206L418 1155L74 1386L158 1487L473 1206Z" />
<glyph unicode="a" glyph-name="a" horiz-adv-x="1099" d="M991 0H846V86Q803 0 592 0H438Q260 0 185 82T109 340Q109 481 197 553T428 625H586Q766 625 844 539V731Q844 897 655 897H455Q365 897 330 874Q281 843 281 758H133V774Q133 1022 446 1022H659Q802
1022 891 961Q991 889 991 752V0ZM842 313Q842 422 778 463Q725 498 610 498H467Q358 498 307 461Q250 418 250 313Q250 209 307 164Q358 127 469 127H627Q842 127 842 313Z" />
<glyph unicode="b" glyph-name="b" horiz-adv-x="1089" d="M1030 442Q1030 -2 616 -2H498Q396 -2 338 16Q264 41 207 113V0H59V1436H207V901Q277 1026 494 1026H612Q884 1026 973 856Q1030 743 1030 442ZM883 446V584Q883 744 817 819Q745 897 588 897H489Q331
897 264 817Q203 745 203 584V455Q203 125 494 125H600Q756 125 823 209Q883 286 883 446Z" />
<glyph unicode="c" glyph-name="c" horiz-adv-x="1036" d="M961 344Q961 -2 598 -2H449Q238 -2 150 117Q76 219 76 442V580Q76 811 158 913Q248 1026 473 1026H571Q772 1026 864 946Q960 860 961 664H823Q823 805 773 851T575 897H469Q276 897 231 766Q211 709
211 463Q211 293 248 223Q301 125 453 125H567Q731 125 778 180Q823 229 823 395H961V344Z" />
<glyph unicode="d" glyph-name="d" horiz-adv-x="1169" d="M1069 0H922V113Q867 41 793 16Q736 -2 631 -2H512Q244 -2 158 172Q99 285 98 584Q98 1026 516 1026H635Q852 1026 922 901V1436H1069V0ZM926 455V584Q926 746 866 817Q798 897 639 897H541Q383 897 315
820T246 584V446Q246 286 307 209Q375 125 528 125H635Q926 125 926 455Z" />
<glyph unicode="e" glyph-name="e" horiz-adv-x="1034" d="M958 281Q958 -2 575 -2H444Q237 -2 152 109Q76 205 76 422V600Q76 1026 444 1026H575Q753 1026 854 940Q958 848 958 674V479H211V360Q211 124 449 125H580Q711 125 762 162Q821 205 821 326H958V281ZM821
606Q821 772 784 827Q737 897 580 897H449Q302 897 252 823Q211 764 211 606H821Z" />
<glyph unicode="f" glyph-name="f" horiz-adv-x="708" d="M641 885H342V0H195V885H70V1022H195Q195 1229 233 1309Q292 1436 477 1436H639V1298Q469 1298 434 1290Q371 1278 354 1223Q342 1180 342 1022H641V885Z" />
<glyph unicode="g" glyph-name="g" horiz-adv-x="1187" d="M1079 -49Q1079 -436 672 -436H535Q162 -436 162 -164H309Q307 -311 537 -311H672Q932 -311 932 -49V119Q860 -2 666 -2H535Q263 -2 172 158Q111 271 111 567Q111 800 212 911T543 1022H659Q872 1022
932 891V1022H1079V-49ZM936 455V573Q936 743 877 815Q811 897 645 897H547Q375 897 311 815Q258 745 258 565V449Q258 277 315 205Q381 125 547 125H641Q805 125 874 211Q936 287 936 455Z" />
<glyph unicode="h" glyph-name="h" horiz-adv-x="1157" d="M1059 0H911V637Q911 809 817 862Q751 901 565 901Q254 901 254 627V0H100V1436H248V893Q295 981 416 1008Q482 1022 629 1022Q1059 1022 1059 643V0Z" />
<glyph unicode="i" glyph-name="i" horiz-adv-x="354" d="M250 1286H102V1436H250V1286ZM250 0H102V1022H250V0Z" />
<glyph unicode="j" glyph-name="j" horiz-adv-x="493" d="M391 1286H244V1436H391V1286ZM391 -145Q391 -438 100 -438V-301Q243 -301 244 -137V1022H391V-145Z" />
<glyph unicode="k" glyph-name="k" horiz-adv-x="1009" d="M956 0H778L324 541H217V0H70V1436H217V688H319L643 1022H823L436 618L956 0Z" />
<glyph unicode="l" glyph-name="l" horiz-adv-x="364" d="M256 0H109V1436H256V0Z" />
<glyph unicode="m" glyph-name="m" horiz-adv-x="1896" d="M1796 0H1649V680Q1649 823 1536 868Q1473 895 1303 895Q1186 895 1108 840Q1022 779 1022 666V0H874V666Q874 813 766 862Q696 895 530 895Q405 895 330 836Q248 770 248 649V0H100V1022H248V883Q301
979 416 1006Q477 1022 631 1022Q903 1022 975 850Q1030 965 1155 1001Q1229 1021 1399 1022Q1575 1022 1681 934Q1796 838 1796 666V0Z" />
<glyph unicode="n" glyph-name="n" horiz-adv-x="1181" d="M1071 0H924V621Q924 768 855 834T641 901H541Q260 901 260 621V0H113V1022H260V885Q330 1022 537 1022H641Q1071 1022 1071 621V0Z" />
<glyph unicode="o" glyph-name="o" horiz-adv-x="1034" d="M958 399Q958 192 877 98Q789 -2 584 -2H453Q248 -2 160 98Q76 190 76 399V604Q76 815 158 915Q246 1026 453 1026H584Q789 1026 879 915Q959 815 958 604V399ZM823 399V604Q823 766 782 825Q731 897
580 897H457Q303 897 252 825Q211 768 211 604V399Q211 247 258 190Q309 127 457 127H580Q725 127 778 190Q823 247 823 399Z" />
<glyph unicode="p" glyph-name="p" horiz-adv-x="1163" d="M1067 442Q1067 0 649 0H530Q313 0 244 125V-414H96V1022H244V913Q301 985 375 1010Q432 1028 535 1028H653Q921 1028 1010 854Q1067 741 1067 442ZM920 442V580Q920 740 860 817Q792 901 637 901H530Q239
901 240 571V442Q240 280 301 209Q369 129 526 129H625Q783 129 854 207Q920 282 920 442Z" />
<glyph unicode="q" glyph-name="q" horiz-adv-x="1169" d="M1071 -414H924V125Q854 0 637 0H518Q246 0 158 170Q101 283 100 584Q100 1028 514 1028H633Q735 1028 793 1010Q869 985 924 913V1022H1071V-414ZM928 442V571Q928 901 637 901H530Q376 901 312 820T248
580V442Q248 282 313 209Q383 129 539 129H631Q795 129 862 207Q928 278 928 442Z" />
<glyph unicode="r" glyph-name="r" horiz-adv-x="1062" d="M1024 606H877Q877 792 797 852Q731 901 537 901Q392 901 311 823T229 600V0H82V1022H227V897Q284 981 399 1008Q465 1022 612 1022Q831 1022 927 923T1024 606Z" />
<glyph unicode="s" glyph-name="s" horiz-adv-x="1036" d="M975 270Q975 -2 631 -2H410Q60 -2 59 326H186Q186 125 408 125H647Q747 125 793 156Q848 193 848 289Q848 391 778 430Q725 461 608 461Q575 461 505 458T397 455Q239 455 164 506Q62 574 61 750Q61
885 152 958Q234 1026 373 1026H598Q969 1026 969 700H842Q842 815 776 860Q721 897 596 897H371Q189 897 188 741Q188 645 258 608Q311 579 428 580Q457 580 520 582T616 584Q784 584 864 530Q975 458 975 270Z" />
<glyph unicode="t" glyph-name="t" horiz-adv-x="935" d="M901 285Q901 0 635 0H481Q200 0 201 319V885H76V1022H201V1219H348V1022H834V885H348V303Q348 129 510 129H612Q755 129 754 285H901Z" />
<glyph unicode="u" glyph-name="u" horiz-adv-x="1130" d="M1032 0H889V119Q830 35 717 10Q660 -2 508 -2Q295 -2 197 93T98 399V1022H246V389Q246 217 342 168Q401 137 594 137Q885 137 885 389V1022H1032V0Z" />
<glyph unicode="v" glyph-name="v" horiz-adv-x="995" d="M967 1022L590 0H422L43 1022H199L506 199L813 1022H967Z" />
<glyph unicode="w" glyph-name="w" horiz-adv-x="1656" d="M1612 1022L1251 0H1106L831 825L555 0H401L43 1022H195L479 221L745 1022H918L1182 240L1460 1022H1612Z" />
<glyph unicode="x" glyph-name="x" horiz-adv-x="1060" d="M1038 0H854L528 432L205 0H20L428 551L74 1022H256L528 655L799 1022H981L629 553L1038 0Z" />
<glyph unicode="y" glyph-name="y" horiz-adv-x="1005" d="M989 1022L635 53Q557 -162 416 -291Q256 -436 45 -436V-307Q174 -307 294 -217T457 -2H444L66 1022H221L528 193L838 1022H989Z" />
<glyph unicode="z" glyph-name="z" horiz-adv-x="968" d="M911 0H57V117L707 885H66V1022H911V907L248 139H911V0Z" />
<glyph unicode="{" glyph-name="braceleft" horiz-adv-x="579" d="M512 -272Q328 -272 258 -172Q205 -96 205 68Q205 105 209 184T213 303Q213 561 70 637Q213 715 213 971Q213 1012 209 1098T205 1225Q205 1385 258 1458Q330 1556 512 1556V1442Q395 1442 348
1372Q309 1317 309 1200Q309 1155 316 1057T324 909Q324 700 207 637Q324 555 324 338Q324 293 318 204T311 76Q311 -39 348 -94Q395 -162 512 -162V-272Z" />
<glyph unicode="|" glyph-name="bar" horiz-adv-x="342" d="M227 -274H115V1528H227V-274Z" />
<glyph unicode="}" glyph-name="braceright" horiz-adv-x="579" d="M512 637Q367 561 367 303Q367 264 371 184T375 68Q375 -96 322 -172Q252 -272 70 -272V-162Q185 -162 231 -94Q268 -39 268 76Q268 115 262 204T256 338Q256 555 375 637Q256 700 256 909Q256
958 263 1056T270 1200Q270 1317 231 1372Q184 1442 70 1442V1556Q250 1556 322 1458Q375 1384 375 1225Q375 1184 371 1098T367 971Q367 715 512 637Z" />
<glyph unicode="~" glyph-name="asciitilde" horiz-adv-x="856" d="M772 909Q766 819 717 762Q664 699 575 698Q487 698 418 752T293 807Q209 807 195 702H84Q98 794 154 854T301 915Q371 915 440 863T559 811Q649 811 664 909H772Z" />
<glyph unicode="&#xa0;" glyph-name="uni00A0" horiz-adv-x="909" />
<glyph unicode="&#xa1;" glyph-name="exclamdown" horiz-adv-x="524" d="M332 977H195V1139H332V977ZM332 -297H195V793H332V-297Z" />
<glyph unicode="&#xa2;" glyph-name="cent" horiz-adv-x="1128" d="M1008 508Q1008 326 924 246T659 166V49H514V166Q301 166 215 244Q123 328 123 543V797Q123 1016 211 1104T514 1192V1323H659V1192Q845 1192 926 1105T1008 829H872Q872 960 831 1010Q784 1067
659 1067V291H680Q805 291 844 369Q873 420 872 561H1008V508ZM514 291V1067H479Q342 1067 295 993Q260 936 260 788V543Q260 291 479 291H514Z" />
<glyph unicode="&#xa3;" glyph-name="sterling" horiz-adv-x="1165" d="M1090 1112H944Q936 1300 694 1300H555Q307 1300 307 1092Q307 1012 371 887Q445 744 457 686H903V543H479Q479 271 270 145H1059V0H76V150Q215 250 260 311Q328 401 330 543H96V686H307Q293
752 219 877Q160 977 160 1102Q160 1256 272 1350Q378 1436 537 1436H715Q867 1436 974 1348T1090 1112Z" />
<glyph unicode="&#xa5;" glyph-name="yen" horiz-adv-x="1155" d="M1124 1436L657 668H885V555H657V473H885V360H657V0H496V360H268V473H496V555H268V668H496L33 1436H193L578 799L965 1436H1124Z" />
<glyph unicode="&#xa6;" glyph-name="brokenbar" horiz-adv-x="342" d="M227 936H115V1528H227V936ZM227 0H115V594H227V0Z" />
<glyph unicode="&#xa7;" glyph-name="section" horiz-adv-x="1224" d="M1169 553Q1169 453 1128 381Q1079 299 989 283Q1038 244 1055 182Q1065 145 1065 59Q1065 -74 971 -145Q885 -208 748 -209H457Q310 -209 230 -119T150 119H274Q274 -82 442 -82H760Q940
-82 940 82Q940 250 727 250Q682 250 576 242T416 233Q248 233 164 299Q58 387 57 602Q57 852 233 887Q176 920 160 985Q152 1020 152 1112Q152 1239 242 1315Q326 1385 457 1384H739Q1061 1384 1061 1059H934Q934 1168 890 1212T735 1257H446Q276 1257 276 1098Q276
928 481 928Q528 928 638 938T805 948Q973 948 1059 877Q1169 782 1169 553ZM1044 580V625Q1044 811 860 811H354Q241 811 205 735Q182 686 182 559Q182 373 358 373H809Q926 373 981 416Q1044 465 1044 580Z" />
<glyph unicode="&#xa8;" glyph-name="dieresis" horiz-adv-x="700" d="M606 1286H459V1436H606V1286ZM242 1286H94V1436H242V1286Z" />
<glyph unicode="&#xa9;" glyph-name="copyright" horiz-adv-x="1310" d="M1241 752Q1241 508 1070 334T655 160Q411 160 241 334T70 752Q70 994 242 1167T655 1341Q897 1341 1069 1168T1241 752ZM1194 754Q1194 977 1036 1137T653 1298Q430 1298 272 1138T113
754Q113 529 270 368T653 207Q878 207 1036 368T1194 754ZM868 553Q778 481 657 481Q532 481 450 552T367 745Q367 870 449 951T657 1032Q763 1032 868 961V909Q770 987 657 987Q548 987 481 920T414 745Q414 643 485 582Q551 527 657 526Q772 526 868 606V553Z"
/>
<glyph unicode="&#xaa;" glyph-name="ordfeminine" horiz-adv-x="600" d="M522 801H449V844Q429 801 322 801H244Q78 801 78 973Q78 1114 240 1114H317Q409 1114 449 1071V1169Q449 1253 354 1253H252Q164 1253 164 1182H90V1192Q90 1315 248 1315H356Q522 1315
522 1180V801ZM522 645H84V707H522V645ZM446 958Q446 1050 332 1051H258Q149 1051 150 958Q150 864 260 864H340Q446 864 446 958Z" />
<glyph unicode="&#xab;" glyph-name="guillemotleft" horiz-adv-x="1114" d="M993 934L639 575L991 219L924 150L502 575L926 1001L993 934ZM612 934L256 575L610 219L541 150L121 575L543 1001L612 934Z" />
<glyph unicode="&#xac;" glyph-name="logicalnot" horiz-adv-x="882" d="M526 842H461V1421L303 1257L256 1300L438 1487H526V842ZM752 715H131V786H752V715ZM698 463Q698 338 580 332Q652 326 678 276Q696 239 696 160Q696 66 648 30T502 -6H395Q280 -6 241 36T201
190Q201 321 317 332Q198 338 199 504Q199 654 377 653H520Q622 653 664 606Q698 565 698 463ZM633 477Q633 549 598 573Q571 593 500 594H397Q325 594 299 573Q264 548 264 477Q264 368 401 369H496Q633 368 633 477ZM633 176Q633 246 601 269T500 293H397Q327
293 299 270Q264 245 264 176Q264 102 299 78Q326 60 397 59H500Q572 59 598 78Q633 102 633 176Z" />
<glyph unicode="&#xad;" glyph-name="minus" horiz-adv-x="999" d="M899 520H100V670H899V520Z" />
<glyph unicode="&#xae;" glyph-name="registered" horiz-adv-x="806" d="M727 1165Q727 1032 632 935T403 838Q270 838 175 935T80 1165Q80 1298 175 1394T403 1491Q536 1491 631 1395T727 1165ZM696 1165Q696 1286 610 1373T403 1460Q282 1460 197 1373T111 1165Q111
1044 197 956T403 868Q524 868 610 956T696 1165ZM539 985H502L383 1159H319V985H291V1362H434Q479 1362 509 1334T539 1260Q539 1160 418 1159L539 985ZM510 1260Q510 1332 436 1331H319V1188H436Q510 1188 510 1260Z" />
<glyph unicode="&#xaf;" glyph-name="uni02C9" horiz-adv-x="692" d="M625 1249H68V1329H625V1249Z" />
<glyph unicode="&#xb0;" glyph-name="degree" horiz-adv-x="557" d="M440 1188Q440 1069 307 1069H254Q119 1069 119 1188V1260Q119 1379 254 1378H307Q440 1378 440 1260V1188ZM395 1190V1257Q395 1331 307 1331H254Q164 1331 164 1257V1190Q164 1114 254 1114H307Q395
1114 395 1190Z" />
<glyph unicode="&#xb1;" glyph-name="plusminus" horiz-adv-x="882" d="M805 729H510V430H373V729H78V866H373V1165H510V866H805V729ZM766 223H113V373H766V223Z" />
<glyph unicode="&#xb2;" glyph-name="uni00B2" horiz-adv-x="882" d="M705 1290Q705 1145 584 1104L365 1065Q246 1034 246 909H702V844H180V940Q180 1067 299 1110L518 1157Q639 1190 639 1290Q639 1372 594 1403Q559 1428 473 1427H416Q258 1427 256 1313H184Q184
1493 416 1493H473Q592 1493 645 1452Q705 1405 705 1290Z" />
<glyph unicode="&#xb3;" glyph-name="uni00B3" horiz-adv-x="882" d="M700 1030Q700 921 639 879Q590 842 477 842H371Q267 842 226 882T184 1024H250Q250 956 275 932T371 907H492Q566 907 596 928Q635 955 635 1030Q635 1145 504 1145H455Q424 1143 408 1143V1208Q529
1208 553 1214Q635 1232 635 1313Q635 1422 498 1421H371Q299 1421 275 1396T250 1300H184V1327Q184 1487 371 1487H477Q583 1487 635 1454Q701 1413 700 1313Q700 1200 610 1180Q700 1163 700 1030Z" />
<glyph unicode="&#xb4;" glyph-name="acute" horiz-adv-x="536" d="M469 1386L123 1155L70 1206L385 1487L469 1386Z" />
<glyph unicode="&#xb5;" glyph-name="mu" horiz-adv-x="882" d="M526 842H461V1421L303 1257L256 1300L438 1487H526V842ZM752 715H131V786H752V715ZM700 444Q700 297 582 258Q471 240 360 219Q241 188 242 63H698V-2H176V92Q176 219 295 262L516 309Q635 342
635 444Q635 526 592 557Q555 582 469 582H412Q254 582 252 467H180Q180 647 412 647H469Q588 647 641 606Q700 559 700 444Z" />
<glyph unicode="&#xb6;" glyph-name="paragraph" horiz-adv-x="1265" d="M1130 -117H981V1436H1130V-117ZM842 -117H682V616Q430 616 301 692Q137 790 137 1026Q137 1227 268 1335Q393 1435 598 1436H842V-117Z" />
<glyph unicode="&#xb7;" glyph-name="uni2219" horiz-adv-x="466" d="M328 782H141V971H328V782Z" />
<glyph unicode="&#xb8;" glyph-name="cedilla" horiz-adv-x="428" d="M354 -117Q354 -303 76 -303V-178Q180 -178 205 -139Q221 -114 221 -2H354V-117Z" />
<glyph unicode="&#xb9;" glyph-name="uni00B9" horiz-adv-x="583" d="M428 842H362V1421L205 1257L158 1300L340 1487H428V842Z" />
<glyph unicode="&#xba;" glyph-name="ordmasculine" horiz-adv-x="595" d="M520 1001Q520 798 332 799H264Q160 799 118 848T76 1001V1104Q76 1317 264 1317H332Q520 1317 520 1104V1001ZM522 645H84V707H522V645ZM451 1001V1104Q451 1186 429 1219T330 1253H266Q188
1253 162 1217Q144 1188 143 1104V1001Q143 925 166 895T266 864H330Q404 864 428 899Q451 927 451 1001Z" />
<glyph unicode="&#xbb;" glyph-name="guillemotright" horiz-adv-x="1114" d="M985 575L563 152L496 221L848 575L494 934L561 1001L985 575ZM621 575L199 152L131 221L483 575L129 934L197 1001L621 575Z" />
<glyph unicode="&#xbc;" glyph-name="onequarter" horiz-adv-x="882" d="M526 842H461V1421L303 1257L256 1300L438 1487H526V842ZM752 715H131V786H752V715ZM688 137H600V-8H535V137H160V199L530 637H600V199H688V137ZM535 199V553L242 199H535Z" />
<glyph unicode="&#xbd;" glyph-name="onehalf" horiz-adv-x="882" d="M526 842H461V1421L303 1257L256 1300L438 1487H526V842ZM752 715H131V786H752V715ZM700 444Q700 297 582 258Q471 240 360 219Q241 188 242 63H698V-2H176V92Q176 219 295 262L516 309Q635
342 635 444Q635 526 592 557Q555 582 469 582H412Q254 582 252 467H180Q180 647 412 647H469Q588 647 641 606Q700 559 700 444Z" />
<glyph unicode="&#xbe;" glyph-name="threequarters" horiz-adv-x="882" d="M719 1030Q719 921 659 879Q608 842 496 842H389Q287 842 245 882T203 1024H268Q268 956 293 932T389 907H510Q586 907 614 928Q653 955 653 1030Q653 1145 524 1145H475Q442 1143 426
1143V1208Q549 1208 571 1214Q653 1232 653 1313Q653 1422 516 1421H389Q317 1421 293 1396T268 1300H203V1327Q203 1487 389 1487H496Q605 1487 655 1454Q718 1413 719 1313Q719 1200 629 1180Q719 1163 719 1030ZM750 698H133V770H750V698ZM694 143H606V-2H541V143H166V205L537
643H606V205H694V143ZM541 205V559L248 205H541Z" />
<glyph unicode="&#xbf;" glyph-name="questiondown" horiz-adv-x="1202" d="M756 965H600V1124H756V965ZM1124 82Q1124 -147 1031 -236T707 -326H541Q299 -326 195 -242Q80 -148 80 84Q80 307 215 391L471 477Q608 524 608 655V780H762V637Q762 451 623 383L365
301Q228 244 227 84Q227 -76 303 -135Q371 -186 541 -186H694Q854 -186 912 -131T977 82H1124Z" />
<glyph unicode="&#xc0;" glyph-name="Agrave" horiz-adv-x="1359" d="M686 1556L637 1505L338 1718L412 1817L686 1556ZM1329 0H1176L1049 346H317L190 0H33L563 1436H797L1329 0ZM989 494L686 1329H678L375 494H989Z" />
<glyph unicode="&#xc1;" glyph-name="Aacute" horiz-adv-x="1359" d="M973 1718L676 1505L625 1556L901 1817L973 1718ZM1329 0H1176L1049 346H317L190 0H33L563 1436H797L1329 0ZM989 494L686 1329H678L375 494H989Z" />
<glyph unicode="&#xc2;" glyph-name="Acircumflex" horiz-adv-x="1359" d="M967 1509H901L676 1651L446 1509H377L639 1772H715L967 1509ZM1329 0H1176L1049 346H317L190 0H33L563 1436H797L1329 0ZM989 494L686 1329H678L375 494H989Z" />
<glyph unicode="&#xc3;" glyph-name="Atilde" horiz-adv-x="1359" d="M961 1718Q955 1636 909 1579Q858 1518 780 1518Q698 1518 640 1569T539 1620Q465 1620 453 1520H350Q377 1723 545 1722Q611 1722 669 1669T766 1616Q842 1616 856 1718H961ZM1329 0H1176L1049
346H317L190 0H33L563 1436H797L1329 0ZM989 494L686 1329H678L375 494H989Z" />
<glyph unicode="&#xc4;" glyph-name="Adieresis" horiz-adv-x="1359" d="M928 1536H786V1679H928V1536ZM569 1536H428V1679H569V1536ZM1329 0H1176L1049 346H317L190 0H33L563 1436H797L1329 0ZM989 494L686 1329H678L375 494H989Z" />
<glyph unicode="&#xc5;" glyph-name="Aring" horiz-adv-x="1359" d="M834 1591Q834 1472 700 1473H647Q512 1473 512 1591V1663Q512 1782 647 1782H700Q833 1782 834 1663V1591ZM1329 0H1176L1049 346H317L190 0H33L563 1436H797L1329 0ZM788 1593V1661Q788 1735
700 1735H647Q557 1735 557 1661V1593Q557 1517 647 1518H700Q788 1517 788 1593ZM989 494L686 1329H678L375 494H989Z" />
<glyph unicode="&#xc6;" glyph-name="AE" horiz-adv-x="1806" d="M1735 0H862V670H569L229 0H72L813 1436H1735V1290H1010V815H1700V670H1010V145H1735V0ZM862 815V1264L653 815H862Z" />
<glyph unicode="&#xc7;" glyph-name="Ccedilla" horiz-adv-x="1300" d="M1260 406Q1260 183 1122 86Q1005 2 772 0Q772 -219 725 -274Q668 -342 446 -340V-201Q575 -203 600 -160Q612 -137 612 0Q333 4 205 98Q92 180 61 365Q43 471 43 788Q43 1189 175 1319T702
1450Q1257 1450 1257 1042H1110Q1110 1220 942 1274Q854 1301 625 1300Q398 1300 299 1223Q215 1155 197 1001Q191 946 190 657Q190 409 232 306T395 170Q485 147 743 147Q917 147 999 190Q1112 249 1112 406H1260Z" />
<glyph unicode="&#xc8;" glyph-name="Egrave" horiz-adv-x="1007" d="M625 1556L575 1505L276 1718L350 1817L625 1556ZM963 0H47V1436H963V1290H195V815H928V670H195V145H963V0Z" />
<glyph unicode="&#xc9;" glyph-name="Eacute" horiz-adv-x="1007" d="M788 1718L492 1505L440 1556L717 1817L788 1718ZM963 0H47V1436H963V1290H195V815H928V670H195V145H963V0Z" />
<glyph unicode="&#xca;" glyph-name="Ecircumflex" horiz-adv-x="1007" d="M799 1507H733L508 1649L276 1507H209L471 1767H547L799 1507ZM963 0H47V1436H963V1290H195V815H928V670H195V145H963V0Z" />
<glyph unicode="&#xcb;" glyph-name="Edieresis" horiz-adv-x="1007" d="M782 1536H641V1679H782V1536ZM424 1536H283V1679H424V1536ZM963 0H47V1436H963V1290H195V815H928V670H195V145H963V0Z" />
<glyph unicode="&#xcc;" glyph-name="Igrave" horiz-adv-x="464" d="M383 1556L332 1505L35 1718L106 1817L383 1556ZM430 0H283V1436H430V0Z" />
<glyph unicode="&#xcd;" glyph-name="Iacute" horiz-adv-x="464" d="M430 1718L133 1505L82 1556L346 1808L430 1718ZM184 0H37V1436H184V0Z" />
<glyph unicode="&#xce;" glyph-name="Icircumflex" horiz-adv-x="352" d="M471 1507H403L178 1649L-51 1507H-119L143 1767H217L471 1507ZM254 0H106V1436H254V0Z" />
<glyph unicode="&#xcf;" glyph-name="Idieresis" horiz-adv-x="352" d="M426 1536H287V1679H426V1536ZM68 1536H-74V1679H68V1536ZM256 0H109V1436H256V0Z" />
<glyph unicode="&#xd0;" glyph-name="Eth" horiz-adv-x="1456" d="M1366 602Q1366 287 1274 156Q1163 0 866 0H213V629H92V780H213V1436H866Q1155 1436 1270 1274Q1366 1137 1366 834V602ZM1219 602V834Q1219 1063 1155 1163Q1077 1290 866 1290H360V780H745V629H360V145H866Q1089
145 1163 268Q1219 358 1219 602Z" />
<glyph unicode="&#xd1;" glyph-name="Ntilde" horiz-adv-x="1417" d="M1022 1718Q1016 1636 969 1577T842 1518Q760 1518 702 1569T600 1620Q528 1620 514 1520H412Q441 1723 606 1722Q672 1722 731 1669T827 1616Q905 1616 918 1718H1022ZM1325 0H1112L240 1321V0H92V1436H336L1178
150V1436H1325V0Z" />
<glyph unicode="&#xd2;" glyph-name="Ograve" horiz-adv-x="1429" d="M768 1556L717 1505L420 1718L492 1817L768 1556ZM1325 573Q1325 270 1225 143Q1110 0 821 0H594Q311 0 201 147Q105 276 104 573V893Q104 1174 207 1303Q322 1444 594 1444H834Q1106 1444
1221 1303Q1325 1176 1325 893V573ZM1178 573V893Q1178 1112 1110 1198Q1034 1294 825 1294H594Q389 1294 315 1194Q252 1110 252 893V573Q252 340 307 256Q379 150 594 150H821Q1044 150 1118 252Q1178 333 1178 573Z" />
<glyph unicode="&#xd3;" glyph-name="Oacute" horiz-adv-x="1419" d="M983 1718L686 1505L635 1556L899 1808L983 1718ZM1321 573Q1321 270 1219 143Q1106 0 817 0H590Q307 0 197 147Q101 276 100 573V893Q100 1174 203 1303Q318 1444 590 1444H829Q1101 1444
1217 1303Q1321 1176 1321 893V573ZM1174 573V893Q1174 1112 1106 1198Q1030 1294 821 1294H590Q385 1294 309 1194Q248 1110 248 893V573Q248 340 303 256Q373 150 590 150H817Q1038 150 1112 252Q1174 333 1174 573Z" />
<glyph unicode="&#xd4;" glyph-name="Ocircumflex" horiz-adv-x="1419" d="M989 1507H922L696 1649L467 1507H399L662 1767H735L989 1507ZM1321 573Q1321 270 1219 143Q1106 0 817 0H590Q307 0 197 147Q101 276 100 573V893Q100 1174 203 1303Q318 1444 590 1444H829Q1101
1444 1217 1303Q1321 1176 1321 893V573ZM1174 573V893Q1174 1112 1106 1198Q1030 1294 821 1294H590Q385 1294 309 1194Q248 1110 248 893V573Q248 340 303 256Q373 150 590 150H817Q1038 150 1112 252Q1174 333 1174 573Z" />
<glyph unicode="&#xd5;" glyph-name="Otilde" horiz-adv-x="1419" d="M1020 1718Q1014 1636 969 1579Q918 1518 840 1518Q756 1518 699 1569T598 1620Q524 1620 512 1520H410Q437 1723 604 1722Q670 1722 728 1669T825 1616Q901 1616 915 1718H1020ZM1321 573Q1321
270 1219 143Q1106 0 817 0H590Q307 0 197 147Q101 276 100 573V893Q100 1174 203 1303Q318 1444 590 1444H829Q1101 1444 1217 1303Q1321 1176 1321 893V573ZM1174 573V893Q1174 1112 1106 1198Q1030 1294 821 1294H590Q385 1294 309 1194Q248 1110 248 893V573Q248
340 303 256Q373 150 590 150H817Q1038 150 1112 252Q1174 333 1174 573Z" />
<glyph unicode="&#xd6;" glyph-name="Odieresis" horiz-adv-x="1429" d="M961 1536H819V1679H961V1536ZM600 1536H461V1679H600V1536ZM1325 573Q1325 270 1225 143Q1110 0 821 0H594Q311 0 201 147Q105 276 104 573V893Q104 1174 207 1303Q322 1444 594 1444H834Q1106
1444 1221 1303Q1325 1176 1325 893V573ZM1178 573V893Q1178 1112 1110 1198Q1034 1294 825 1294H594Q389 1294 315 1194Q252 1110 252 893V573Q252 340 307 256Q379 150 594 150H821Q1044 150 1118 252Q1178 333 1178 573Z" />
<glyph unicode="&#xd7;" glyph-name="multiply" horiz-adv-x="1056" d="M975 86L854 0L528 432L205 0L84 86L428 551L141 934L256 1022L528 655L799 1022L915 934L629 553L975 86Z" />
<glyph unicode="&#xd8;" glyph-name="Oslash" horiz-adv-x="1429" d="M1325 573Q1325 270 1225 143Q1110 0 821 0Q811 0 690 -2Q610 -4 557 0Q485 2 428 14L344 -166H190L297 61Q104 172 104 573V893Q104 1210 256 1343Q387 1458 662 1458Q777 1458 948 1438L1024
1597H1178L1085 1403Q1325 1307 1325 893V573ZM1178 573V893Q1178 1200 1022 1266L496 154Q549 150 594 150H821Q1044 150 1118 252Q1178 333 1178 573ZM881 1292L825 1294H594Q389 1294 315 1194Q252 1110 252 893V573Q252 276 362 199L881 1292Z" />
<glyph unicode="&#xd9;" glyph-name="Ugrave" horiz-adv-x="1263" d="M700 1556L649 1505L352 1718L424 1817L700 1556ZM1184 440Q1184 211 1079 106T745 0H512Q80 0 80 436V1436H227V434Q227 282 294 214T512 145H745Q907 145 971 208T1036 434V1436H1184V440Z" />
<glyph unicode="&#xda;" glyph-name="Uacute" horiz-adv-x="1263" d="M942 1718L645 1505L594 1556L858 1808L942 1718ZM1184 440Q1184 211 1079 106T745 0H512Q80 0 80 436V1436H227V434Q227 282 294 214T512 145H745Q907 145 971 208T1036 434V1436H1184V440Z" />
<glyph unicode="&#xdb;" glyph-name="Ucircumflex" horiz-adv-x="1263" d="M932 1507H866L641 1649L410 1507H342L604 1767H680L932 1507ZM1184 440Q1184 211 1079 106T745 0H512Q80 0 80 436V1436H227V434Q227 282 294 214T512 145H745Q907 145 971 208T1036
434V1436H1184V440Z" />
<glyph unicode="&#xdc;" glyph-name="Udieresis" horiz-adv-x="1429" d="M969 1536H827V1679H969V1536ZM608 1536H467V1679H608V1536ZM1268 440Q1268 211 1163 106T829 0H596Q164 0 164 436V1436H311V434Q311 282 377 214T596 145H829Q991 145 1055 208T1120 434V1436H1268V440Z"
/>
<glyph unicode="&#xdd;" glyph-name="Yacute" horiz-adv-x="1155" d="M885 1718L588 1505L537 1556L813 1817L885 1718ZM1124 1436L651 668V0H504V668L33 1436H193L578 799L965 1436H1124Z" />
<glyph unicode="&#xde;" glyph-name="Thorn" horiz-adv-x="1243" d="M1135 731Q1135 483 991 387Q882 311 653 311Q592 311 461 318T268 326V0H111V1436H268V1145Q329 1145 455 1151T643 1157Q879 1157 989 1081Q1135 983 1135 731ZM987 735Q987 870 929 934T739
999H268V469H739Q876 469 932 535Q987 594 987 735Z" />
<glyph unicode="&#xdf;" glyph-name="germandbls" horiz-adv-x="1273" d="M1212 440Q1212 204 1116 102T788 0H535V141Q576 141 651 138T760 135Q918 135 987 188Q1077 256 1077 440Q1077 643 928 705Q838 744 600 743V866Q739 866 801 903Q879 952 879 1081Q879
1300 664 1300H516Q393 1300 341 1245T289 1067V0H141V909H61V1022H141Q141 1225 217 1325Q303 1440 502 1440H664Q1026 1440 1026 1081Q1026 866 901 834Q1212 805 1212 440Z" />
<glyph unicode="&#xe0;" glyph-name="agrave" horiz-adv-x="1099" d="M608 1206L553 1155L207 1386L291 1487L608 1206ZM991 0H846V86Q803 0 592 0H438Q260 0 185 82T109 340Q109 481 197 553T428 625H586Q766 625 844 539V731Q844 897 655 897H455Q365 897 330
874Q281 843 281 758H133V774Q133 1022 446 1022H659Q802 1022 891 961Q991 889 991 752V0ZM842 313Q842 422 778 463Q725 498 610 498H467Q358 498 307 461Q250 418 250 313Q250 209 307 164Q358 127 469 127H627Q842 127 842 313Z" />
<glyph unicode="&#xe1;" glyph-name="aacute" horiz-adv-x="1099" d="M897 1386L551 1155L496 1206L813 1487L897 1386ZM991 0H846V86Q803 0 592 0H438Q260 0 185 82T109 340Q109 481 197 553T428 625H586Q766 625 844 539V731Q844 897 655 897H455Q365 897 330
874Q281 843 281 758H133V774Q133 1022 446 1022H659Q802 1022 891 961Q991 889 991 752V0ZM842 313Q842 422 778 463Q725 498 610 498H467Q358 498 307 461Q250 418 250 313Q250 209 307 164Q358 127 469 127H627Q842 127 842 313Z" />
<glyph unicode="&#xe2;" glyph-name="acircumflex" horiz-adv-x="1099" d="M877 1165H803L553 1321L297 1165H221L512 1454H594L877 1165ZM991 0H846V86Q803 0 592 0H438Q260 0 185 82T109 340Q109 481 197 553T428 625H586Q766 625 844 539V731Q844 897 655 897H455Q365
897 330 874Q281 843 281 758H133V774Q133 1022 446 1022H659Q802 1022 891 961Q991 889 991 752V0ZM842 313Q842 422 778 463Q725 498 610 498H467Q358 498 307 461Q250 418 250 313Q250 209 307 164Q358 127 469 127H627Q842 127 842 313Z" />
<glyph unicode="&#xe3;" glyph-name="atilde" horiz-adv-x="1099" d="M885 1417Q879 1329 831 1272Q778 1206 694 1206Q606 1206 546 1259T440 1313Q364 1313 350 1210H242Q254 1300 303 1358Q358 1424 446 1423Q514 1423 576 1366T680 1309Q760 1309 774 1417H885ZM991
0H846V86Q803 0 592 0H438Q260 0 185 82T109 340Q109 481 197 553T428 625H586Q766 625 844 539V731Q844 897 655 897H455Q365 897 330 874Q281 843 281 758H133V774Q133 1022 446 1022H659Q802 1022 891 961Q991 889 991 752V0ZM842 313Q842 422 778 463Q725 498
610 498H467Q358 498 307 461Q250 418 250 313Q250 209 307 164Q358 127 469 127H627Q842 127 842 313Z" />
<glyph unicode="&#xe4;" glyph-name="adieresis" horiz-adv-x="1099" d="M801 1286H653V1436H801V1286ZM436 1286H289V1436H436V1286ZM991 0H846V86Q803 0 592 0H438Q260 0 185 82T109 340Q109 481 197 553T428 625H586Q766 625 844 539V731Q844 897 655 897H455Q365
897 330 874Q281 843 281 758H133V774Q133 1022 446 1022H659Q802 1022 891 961Q991 889 991 752V0ZM842 313Q842 422 778 463Q725 498 610 498H467Q358 498 307 461Q250 418 250 313Q250 209 307 164Q358 127 469 127H627Q842 127 842 313Z" />
<glyph unicode="&#xe5;" glyph-name="aring" horiz-adv-x="1099" d="M702 1274Q702 1157 569 1157H516Q381 1157 381 1274V1348Q381 1465 516 1464H569Q702 1464 702 1348V1274ZM991 0H846V86Q803 0 592 0H438Q260 0 185 82T109 340Q109 481 197 553T428 625H586Q766
625 844 539V731Q844 897 655 897H455Q365 897 330 874Q281 843 281 758H133V774Q133 1022 446 1022H659Q802 1022 891 961Q991 889 991 752V0ZM657 1276V1346Q657 1420 569 1419H516Q426 1419 426 1346V1276Q426 1202 516 1202H569Q657 1202 657 1276ZM842 313Q842
422 778 463Q725 498 610 498H467Q358 498 307 461Q250 418 250 313Q250 209 307 164Q358 127 469 127H627Q842 127 842 313Z" />
<glyph unicode="&#xe6;" glyph-name="ae" horiz-adv-x="1810" d="M1722 281Q1722 88 1544 29Q1452 -2 1208 -2Q1052 -2 973 53V0H827V86Q792 16 639 2Q616 0 420 0Q242 0 166 82T90 340Q90 535 246 594Q330 625 567 625Q745 625 825 539V731Q825 897 637 897H436Q346
897 309 874Q262 843 262 758H115V774Q115 1022 428 1022H641Q840 1022 922 911Q988 997 1112 1018Q1163 1026 1339 1026Q1517 1026 1616 940Q1722 848 1722 674V479H975V360Q975 190 1083 147Q1138 124 1343 125Q1474 125 1524 162Q1585 205 1585 326H1722V281ZM1585
606Q1585 772 1548 827Q1499 897 1343 897H1212Q1065 897 1014 823Q975 764 975 606H1585ZM823 313Q823 422 758 463Q707 498 592 498H449Q338 498 289 461Q232 418 231 313Q231 209 289 164Q340 127 451 127H608Q823 127 823 313Z" />
<glyph unicode="&#xe7;" glyph-name="ccedilla" horiz-adv-x="1036" d="M961 344Q961 -2 590 -2Q590 -211 559 -250Q518 -303 309 -303V-190Q403 -192 430 -174T457 -100Q457 -88 455 -57V-2Q240 -2 152 115Q76 217 76 442V580Q76 811 158 913Q250 1026 473 1026H571Q772
1026 864 946Q960 860 961 664H823Q823 805 773 851T575 897H469Q276 897 231 766Q211 709 211 463Q211 293 248 223Q301 125 453 125H567Q731 125 778 180Q823 229 823 395H961V344Z" />
<glyph unicode="&#xe8;" glyph-name="egrave" horiz-adv-x="1034" d="M575 1206L522 1155L176 1386L260 1487L575 1206ZM958 281Q958 -2 575 -2H444Q237 -2 152 109Q76 205 76 422V600Q76 1026 444 1026H575Q753 1026 854 940Q958 848 958 674V479H211V360Q211
124 449 125H580Q711 125 762 162Q821 205 821 326H958V281ZM821 606Q821 772 784 827Q737 897 580 897H449Q302 897 252 823Q211 764 211 606H821Z" />
<glyph unicode="&#xe9;" glyph-name="eacute" horiz-adv-x="1034" d="M844 1386L498 1155L444 1206L760 1487L844 1386ZM958 281Q958 -2 575 -2H444Q237 -2 152 109Q76 205 76 422V600Q76 1026 444 1026H575Q753 1026 854 940Q958 848 958 674V479H211V360Q211
124 449 125H580Q711 125 762 162Q821 205 821 326H958V281ZM821 606Q821 772 784 827Q737 897 580 897H449Q302 897 252 823Q211 764 211 606H821Z" />
<glyph unicode="&#xea;" glyph-name="ecircumflex" horiz-adv-x="1034" d="M829 1165H756L506 1321L248 1165H174L465 1454H547L829 1165ZM958 281Q958 -2 575 -2H444Q237 -2 152 109Q76 205 76 422V600Q76 1026 444 1026H575Q753 1026 854 940Q958 848 958 674V479H211V360Q211
124 449 125H580Q711 125 762 162Q821 205 821 326H958V281ZM821 606Q821 772 784 827Q737 897 580 897H449Q302 897 252 823Q211 764 211 606H821Z" />
<glyph unicode="&#xeb;" glyph-name="edieresis" horiz-adv-x="1034" d="M772 1286H625V1436H772V1286ZM408 1286H260V1436H408V1286ZM958 281Q958 -2 575 -2H444Q237 -2 152 109Q76 205 76 422V600Q76 1026 444 1026H575Q753 1026 854 940Q958 848 958 674V479H211V360Q211
124 449 125H580Q711 125 762 162Q821 205 821 326H958V281ZM821 606Q821 772 784 827Q737 897 580 897H449Q302 897 252 823Q211 764 211 606H821Z" />
<glyph unicode="&#xec;" glyph-name="igrave" horiz-adv-x="354" d="M358 1206L303 1155L-43 1386L41 1487L358 1206ZM397 0H250V1022H397V0Z" />
<glyph unicode="&#xed;" glyph-name="iacute" horiz-adv-x="354" d="M387 1386L41 1155L-12 1206L303 1487L387 1386ZM113 0H-35V1022H113V0Z" />
<glyph unicode="&#xee;" glyph-name="icircumflex" horiz-adv-x="354" d="M504 1165H432L180 1321L-76 1165H-152L139 1454H221L504 1165ZM250 0H102V1022H250V0Z" />
<glyph unicode="&#xef;" glyph-name="idieresis" horiz-adv-x="354" d="M432 1286H285V1436H432V1286ZM68 1286H-80V1436H68V1286ZM244 0H96V1022H244V0Z" />
<glyph unicode="&#xf0;" glyph-name="eth" horiz-adv-x="1056" d="M971 399Q971 194 887 98Q797 -2 596 -2H465Q258 -2 170 98Q88 190 88 399V604Q88 815 168 915Q260 1026 465 1026H596Q748 1026 836 965Q828 1139 688 1272L555 1139L461 1235L573 1350Q518 1375
360 1374V1499H461Q576 1499 670 1446L807 1585L901 1487L782 1368Q970 1192 971 956V399ZM836 399V604Q836 766 793 825Q742 897 592 897H469Q315 897 264 825Q223 768 223 604V399Q223 247 268 190Q321 127 469 127H592Q737 127 788 190Q836 247 836 399Z" />
<glyph unicode="&#xf1;" glyph-name="ntilde" horiz-adv-x="1181" d="M911 1417Q905 1329 856 1272Q803 1206 721 1206Q633 1206 572 1259T467 1313Q389 1313 377 1210H268Q280 1300 330 1358Q385 1424 473 1423Q541 1423 603 1366T707 1309Q787 1309 801 1417H911ZM1071
0H924V621Q924 768 855 834T641 901H541Q260 901 260 621V0H113V1022H260V885Q330 1022 537 1022H641Q1071 1022 1071 621V0Z" />
<glyph unicode="&#xf2;" glyph-name="ograve" horiz-adv-x="1034" d="M580 1206L524 1155L178 1386L262 1487L580 1206ZM958 399Q958 192 877 98Q789 -2 584 -2H453Q248 -2 160 98Q76 190 76 399V604Q76 815 158 915Q246 1026 453 1026H584Q789 1026 879 915Q959
815 958 604V399ZM823 399V604Q823 766 782 825Q731 897 580 897H457Q303 897 252 825Q211 768 211 604V399Q211 247 258 190Q309 127 457 127H580Q725 127 778 190Q823 247 823 399Z" />
<glyph unicode="&#xf3;" glyph-name="oacute" horiz-adv-x="1034" d="M848 1386L502 1155L446 1206L764 1487L848 1386ZM958 399Q958 192 877 98Q789 -2 584 -2H453Q248 -2 160 98Q76 190 76 399V604Q76 815 158 915Q246 1026 453 1026H584Q789 1026 879 915Q959
815 958 604V399ZM823 399V604Q823 766 782 825Q731 897 580 897H457Q303 897 252 825Q211 768 211 604V399Q211 247 258 190Q309 127 457 127H580Q725 127 778 190Q823 247 823 399Z" />
<glyph unicode="&#xf4;" glyph-name="ocircumflex" horiz-adv-x="1034" d="M842 1165H768L518 1321L260 1165H186L477 1454H559L842 1165ZM958 399Q958 192 877 98Q789 -2 584 -2H453Q248 -2 160 98Q76 190 76 399V604Q76 815 158 915Q246 1026 453 1026H584Q789
1026 879 915Q959 815 958 604V399ZM823 399V604Q823 766 782 825Q731 897 580 897H457Q303 897 252 825Q211 768 211 604V399Q211 247 258 190Q309 127 457 127H580Q725 127 778 190Q823 247 823 399Z" />
<glyph unicode="&#xf5;" glyph-name="otilde" horiz-adv-x="1034" d="M831 1417Q825 1329 778 1272Q725 1206 641 1206Q553 1206 493 1259T387 1313Q311 1313 297 1210H188Q200 1300 250 1358Q305 1424 393 1423Q461 1423 523 1366T627 1309Q707 1309 721 1417H831ZM958
399Q958 192 877 98Q789 -2 584 -2H453Q248 -2 160 98Q76 190 76 399V604Q76 815 158 915Q246 1026 453 1026H584Q789 1026 879 915Q959 815 958 604V399ZM823 399V604Q823 766 782 825Q731 897 580 897H457Q303 897 252 825Q211 768 211 604V399Q211 247 258 190Q309
127 457 127H580Q725 127 778 190Q823 247 823 399Z" />
<glyph unicode="&#xf6;" glyph-name="odieresis" horiz-adv-x="1034" d="M774 1286H627V1436H774V1286ZM412 1286H262V1436H412V1286ZM958 399Q958 192 877 98Q789 -2 584 -2H453Q248 -2 160 98Q76 190 76 399V604Q76 815 158 915Q246 1026 453 1026H584Q789 1026
879 915Q959 815 958 604V399ZM823 399V604Q823 766 782 825Q731 897 580 897H457Q303 897 252 825Q211 768 211 604V399Q211 247 258 190Q309 127 457 127H580Q725 127 778 190Q823 247 823 399Z" />
<glyph unicode="&#xf7;" glyph-name="divide" horiz-adv-x="886" d="M532 854H373V1016H532V854ZM770 526H117V676H770V526ZM532 184H373V346H532V184Z" />
<glyph unicode="&#xf8;" glyph-name="oslash" horiz-adv-x="1056" d="M971 399Q971 -17 559 -16Q457 -16 328 10L289 -74H168L227 49Q88 135 88 399V604Q88 1036 498 1036Q580 1036 682 1020L737 1135H858L791 991Q971 913 971 604V399ZM836 399V604Q836 829 735
874L385 133Q422 127 469 127H592Q737 127 788 190Q836 247 836 399ZM625 897H469Q315 897 264 825Q223 768 223 604V399Q223 229 285 174L625 897Z" />
<glyph unicode="&#xf9;" glyph-name="ugrave" horiz-adv-x="1130" d="M596 1206L541 1155L197 1386L281 1487L596 1206ZM1032 0H889V119Q830 35 717 10Q660 -2 508 -2Q295 -2 197 93T98 399V1022H246V389Q246 217 342 168Q401 137 594 137Q885 137 885 389V1022H1032V0Z" />
<glyph unicode="&#xfa;" glyph-name="uacute" horiz-adv-x="1130" d="M899 1386L553 1155L498 1206L815 1487L899 1386ZM1032 0H889V119Q830 35 717 10Q660 -2 508 -2Q295 -2 197 93T98 399V1022H246V389Q246 217 342 168Q401 137 594 137Q885 137 885 389V1022H1032V0Z" />
<glyph unicode="&#xfb;" glyph-name="ucircumflex" horiz-adv-x="1130" d="M889 1165H817L567 1321L309 1165H233L526 1454H608L889 1165ZM1032 0H889V119Q830 35 717 10Q660 -2 508 -2Q295 -2 197 93T98 399V1022H246V389Q246 217 342 168Q401 137 594 137Q885
137 885 389V1022H1032V0Z" />
<glyph unicode="&#xfc;" glyph-name="udieresis" horiz-adv-x="1130" d="M817 1286H670V1436H817V1286ZM453 1286H305V1436H453V1286ZM1032 0H889V119Q830 35 717 10Q660 -2 508 -2Q295 -2 197 93T98 399V1022H246V389Q246 217 342 168Q401 137 594 137Q885 137
885 389V1022H1032V0Z" />
<glyph unicode="&#xfd;" glyph-name="yacute" horiz-adv-x="1003" d="M862 1386L516 1155L463 1206L778 1487L862 1386ZM975 1022L621 53Q541 -162 401 -291Q239 -436 31 -436V-307Q160 -307 278 -217T442 -2H430L51 1022H207L514 193L823 1022H975Z" />
<glyph unicode="&#xfe;" glyph-name="thorn" horiz-adv-x="1173" d="M1073 442Q1073 0 655 0H537Q320 0 250 125V-414H102V1436H250V913Q305 983 379 1010Q438 1028 541 1028H659Q927 1028 1014 854Q1073 741 1073 442ZM926 442V580Q926 740 864 817Q796 901 643
901H537Q246 901 246 571V442Q246 280 305 209Q373 129 532 129H631Q789 129 857 205T926 442Z" />
<glyph unicode="&#xff;" glyph-name="ydieresis" horiz-adv-x="1005" d="M752 1286H604V1436H752V1286ZM387 1286H240V1436H387V1286ZM961 1022L606 53Q528 -162 387 -291Q227 -436 16 -436V-307Q145 -307 265 -217T428 -2H416L37 1022H193L500 193L809 1022H961Z" />
<glyph unicode="&#x131;" glyph-name="dotlessi" horiz-adv-x="446" d="M297 0H150V1012H297V0Z" />
<glyph unicode="&#x141;" glyph-name="Lslash" horiz-adv-x="1183" d="M1126 0H211V473L57 319V514L211 668V1421H358V791L586 1018V823L358 596V147H1126V0Z" />
<glyph unicode="&#x142;" glyph-name="lslash" horiz-adv-x="464" d="M459 743L303 588V0H156V467L8 319V514L156 662V1421H303V782L459 938V743Z" />
<glyph unicode="&#x152;" glyph-name="OE" horiz-adv-x="2193" d="M2093 0H1165V86Q1050 0 817 0H590Q309 0 197 147Q101 276 100 573V893Q100 1174 203 1303Q318 1444 590 1444H829Q1052 1444 1165 1356V1436H2093V1286H1325V815H2058V666H1325V150H2093V0ZM1174
573V893Q1174 1112 1106 1198Q1030 1294 821 1294H590Q385 1294 311 1194Q248 1110 248 893V573Q248 340 303 256Q375 150 590 150H817Q1040 150 1114 252Q1174 333 1174 573Z" />
<glyph unicode="&#x153;" glyph-name="oe" horiz-adv-x="1826" d="M1731 281Q1731 88 1552 29Q1460 -2 1217 -2Q994 -2 915 121Q852 29 715 6Q664 -2 475 -2Q270 -2 180 98Q98 192 98 399V604Q98 874 223 961Q321 1027 606 1026Q829 1026 918 893Q979 991 1110
1016Q1165 1026 1348 1026Q1526 1026 1624 940Q1730 848 1731 674V479H983V360Q983 190 1092 147Q1147 124 1352 125Q1483 125 1532 162Q1593 205 1593 326H1731V281ZM1593 606Q1593 772 1556 827Q1507 897 1352 897H1221Q1074 897 1022 823Q983 764 983 606H1593ZM846
399V604Q846 766 803 825Q752 897 602 897H479Q325 897 274 825Q233 768 233 604V399Q233 247 279 190Q332 127 479 127H602Q747 127 799 190Q846 247 846 399Z" />
<glyph unicode="&#x160;" glyph-name="Scaron" horiz-adv-x="1273" d="M893 1745L659 1513H594L369 1745H428L627 1622L831 1745H893ZM1198 373Q1198 0 741 0H512Q289 0 190 94T90 408H238Q238 258 296 204T510 150H739Q905 150 971 197Q1049 254 1049 410Q1049
570 942 627Q866 668 692 668H616Q563 666 539 666Q320 666 219 729Q78 821 78 1073Q78 1435 504 1436H725Q967 1436 1071 1354Q1186 1262 1186 1030H1038Q1034 1175 972 1230T764 1286H489Q333 1286 279 1228T225 1020Q225 893 319 848Q389 815 549 815H620H694Q930
815 1038 748Q1198 647 1198 373Z" />
<glyph unicode="&#x161;" glyph-name="scaron" horiz-adv-x="1110" d="M889 1415L598 1124H516L233 1415H307L557 1260L813 1415H889ZM1014 270Q1014 -2 670 -2H449Q99 -2 98 326H225Q225 125 446 125H686Q786 125 831 156Q886 193 887 289Q887 391 815 430Q762
461 645 461Q612 461 542 458T436 455Q278 455 201 506Q101 574 100 750Q100 885 188 958Q272 1026 412 1026H637Q1008 1026 1008 700H881Q881 815 813 860Q760 897 635 897H410Q228 897 227 741Q227 645 295 608Q348 579 465 580Q494 580 558 582T655 584Q823
584 903 530Q1014 458 1014 270Z" />
<glyph unicode="&#x178;" glyph-name="Ydieresis" horiz-adv-x="1171" d="M844 1536H702V1679H844V1536ZM485 1536H344V1679H485V1536ZM1147 1436L674 668V0H526V668L55 1436H215L600 799L987 1436H1147Z" />
<glyph unicode="&#x17d;" glyph-name="Zcaron" horiz-adv-x="1226" d="M889 1729L655 1499H590L365 1729H424L623 1606L827 1729H889ZM1139 0H88V115L942 1274H88V1421H1139V1309L299 147H1139V0Z" />
<glyph unicode="&#x17e;" glyph-name="zcaron" horiz-adv-x="1083" d="M872 1401L582 1114H500L217 1401H291L541 1247L797 1401H872ZM969 0H115V115L764 877H123V1012H969V899L305 137H969V0Z" />
<glyph unicode="&#x192;" glyph-name="florin" horiz-adv-x="1329" d="M1210 0H119V1102H1210V0Z" />
<glyph unicode="&#x2c6;" glyph-name="circumflex" horiz-adv-x="837" d="M748 1165H674L424 1321L166 1165H92L383 1454H465L748 1165Z" />
<glyph unicode="&#x2c7;" glyph-name="caron" horiz-adv-x="811" d="M733 1401L442 1114H360L78 1401H152L401 1247L657 1401H733Z" />
<glyph unicode="&#x2c9;" glyph-name="uni02C9" horiz-adv-x="692" d="M625 1249H68V1329H625V1249Z" />
<glyph unicode="&#x2d8;" glyph-name="breve" horiz-adv-x="628" d="M590 1270Q477 1180 313 1180Q141 1180 39 1270L90 1333Q178 1263 313 1264Q454 1264 537 1333L590 1270Z" />
<glyph unicode="&#x2d9;" glyph-name="dotaccent" horiz-adv-x="319" d="M240 1219H80V1378H240V1219Z" />
<glyph unicode="&#x2da;" glyph-name="ring" horiz-adv-x="509" d="M416 1262Q416 1145 283 1145H229Q94 1145 94 1262V1333Q94 1450 229 1450H283Q416 1450 416 1333V1262ZM371 1264V1331Q371 1405 283 1405H229Q139 1405 139 1331V1264Q139 1190 229 1190H283Q371
1190 371 1264Z" />
<glyph unicode="&#x2db;" glyph-name="ogonek" horiz-adv-x="454" d="M367 -301Q88 -301 88 -115V-2H221Q221 -113 238 -139Q263 -176 367 -176V-301Z" />
<glyph unicode="&#x2dc;" glyph-name="tilde" horiz-adv-x="763" d="M705 1417Q699 1329 649 1272Q596 1206 514 1206Q426 1206 365 1259T260 1313Q182 1313 170 1210H61Q73 1300 123 1358Q178 1424 266 1423Q329 1423 391 1370T500 1317Q580 1317 594 1417H705Z" />
<glyph unicode="&#x2dd;" glyph-name="hungarumlaut" horiz-adv-x="749" d="M641 1475L395 1141L328 1169L530 1540L641 1475ZM424 1475L178 1141L109 1169L311 1540L424 1475Z" />
<glyph unicode="&#x394;" glyph-name="uni2206" horiz-adv-x="1253" d="M1214 0H39L604 1376H649L1214 0ZM948 92L567 1032L184 92H948Z" />
<glyph unicode="&#x3a9;" glyph-name="uni2126" horiz-adv-x="1572" d="M1470 836Q1470 615 1323 473Q1192 348 963 305V184H1214Q1316 184 1356 225Q1389 262 1395 360H1442V0H885V369Q1051 402 1143 535Q1229 660 1229 836Q1229 1047 1112 1178T786 1309Q579
1309 462 1177T344 836Q344 656 428 535Q518 404 688 369V0H131V360H178Q184 260 220 222T358 184H610V305Q383 346 250 473Q103 614 102 836Q102 1104 317 1253Q505 1382 786 1382Q1067 1382 1255 1253Q1470 1104 1470 836Z" />
<glyph unicode="&#x3bc;" glyph-name="mu" horiz-adv-x="882" d="M526 842H461V1421L303 1257L256 1300L438 1487H526V842ZM752 715H131V786H752V715ZM700 444Q700 297 582 258Q471 240 360 219Q241 188 242 63H698V-2H176V92Q176 219 295 262L516 309Q635 342
635 444Q635 526 592 557Q555 582 469 582H412Q254 582 252 467H180Q180 647 412 647H469Q588 647 641 606Q700 559 700 444Z" />
<glyph unicode="&#x3c0;" glyph-name="pi" horiz-adv-x="882" d="M719 1020Q719 914 659 870Q608 833 496 834H389Q287 834 245 873T203 1014H268Q268 946 293 923T389 899H510Q584 899 614 920Q653 947 653 1020Q653 1135 526 1135Q510 1135 476 1133T426 1130V1196Q549
1196 571 1202Q653 1220 653 1300Q653 1406 516 1407H389Q319 1407 294 1383T268 1288H203V1315Q203 1473 389 1473H496Q719 1473 719 1300Q719 1187 629 1167Q719 1151 719 1020ZM750 692H133V762H750V692ZM694 141H606V-2H541V141H166V203L537 637H606V203H694V141ZM541
203V553L248 203H541Z" />
<glyph unicode="&#x2010;" glyph-name="uni2010" horiz-adv-x="868" d="M760 526H106V676H760V526Z" />
<glyph unicode="&#x2013;" glyph-name="endash" horiz-adv-x="1171" d="M1055 526H117V676H1055V526Z" />
<glyph unicode="&#x2014;" glyph-name="emdash" horiz-adv-x="1933" d="M1749 526H184V676H1749V526Z" />
<glyph unicode="&#x2018;" glyph-name="quoteleft" horiz-adv-x="239" d="M201 1128H41V1395Q41 1469 98 1507H174Q115 1454 115 1395V1288H201V1128Z" />
<glyph unicode="&#x2019;" glyph-name="quoteright" horiz-adv-x="362" d="M260 1171Q260 1095 203 1057H127Q186 1110 186 1171V1276H100V1436H260V1171Z" />
<glyph unicode="&#x201a;" glyph-name="quotesinglbase" horiz-adv-x="374" d="M268 49Q268 -25 211 -63H135Q194 -10 195 49V156H109V315H268V49Z" />
<glyph unicode="&#x201c;" glyph-name="quotedblleft" horiz-adv-x="610" d="M510 1128H350V1395Q350 1469 408 1507H483Q424 1454 424 1395V1288H510V1128ZM260 1128H100V1395Q100 1469 158 1507H233Q174 1454 174 1395V1288H260V1128Z" />
<glyph unicode="&#x201d;" glyph-name="quotedblright" horiz-adv-x="608" d="M510 1171Q510 1095 453 1057H377Q436 1110 436 1171V1276H350V1436H510V1171ZM260 1171Q260 1095 203 1057H127Q186 1110 186 1171V1276H100V1436H260V1171Z" />
<glyph unicode="&#x201e;" glyph-name="quotedblbase" horiz-adv-x="647" d="M528 49Q528 -25 471 -63H395Q454 -10 455 49V156H369V315H528V49ZM279 49Q279 -25 221 -63H145Q204 -10 205 49V156H119V315H279V49Z" />
<glyph unicode="&#x2020;" glyph-name="dagger" horiz-adv-x="499" d="M416 1217H276V254H223V1217H84V1270H223V1522H276V1270H416V1217Z" />
<glyph unicode="&#x2021;" glyph-name="daggerdbl" horiz-adv-x="499" d="M418 696H279V145H221V696H82V752H221V1147H82V1204H221V1522H279V1204H418V1147H279V752H418V696Z" />
<glyph unicode="&#x2022;" glyph-name="bullet" horiz-adv-x="956" d="M817 563Q817 424 718 323T479 221Q338 221 240 322T141 563Q141 702 239 802T479 903Q618 903 717 803T817 563Z" />
<glyph unicode="&#x2026;" glyph-name="ellipsis" horiz-adv-x="1632" d="M1442 0H1282V162H1442V0ZM897 0H737V162H897V0ZM352 0H193V162H352V0Z" />
<glyph unicode="&#x2030;" glyph-name="perthousand" horiz-adv-x="2885" d="M2783 373Q2783 170 2712 88Q2636 0 2439 0H2359Q2158 0 2083 85T2007 373V500Q2007 733 2099 811Q2181 881 2417 881Q2620 881 2701 794T2783 500V373ZM1917 373Q1917 170 1845 88Q1769
0 1573 0H1493Q1292 0 1217 85T1141 373V500Q1141 733 1233 811Q1315 881 1550 881Q1753 881 1835 794T1917 500V373ZM1276 1505L856 -68H754L1174 1505H1276ZM881 924Q881 721 809 641Q733 553 537 553H457Q256 553 180 637T104 924V1053Q104 1286 197 1364Q279
1434 514 1434Q717 1434 799 1347T881 1053V924ZM2660 369V506Q2660 658 2611 707T2413 756H2359Q2214 756 2172 705T2130 506V369Q2130 226 2177 177T2367 127H2425Q2566 127 2613 176T2660 369ZM1794 369V506Q1794 658 1745 707T1546 756H1493Q1348 756 1306
705T1264 506V369Q1264 226 1311 177T1501 127H1559Q1700 127 1747 176T1794 369ZM758 920V1059Q758 1211 709 1259T510 1307H457Q312 1307 270 1257T227 1059V920Q227 779 275 729T465 678H522Q663 678 710 727T758 920Z" />
<glyph unicode="&#x2039;" glyph-name="guilsinglleft" horiz-adv-x="718" d="M606 934L250 575L604 219L535 150L115 575L537 1001L606 934Z" />
<glyph unicode="&#x203a;" glyph-name="guilsinglright" horiz-adv-x="710" d="M602 575L182 152L113 221L467 575L111 934L180 1001L602 575Z" />
<glyph unicode="&#x2044;" glyph-name="fraction" horiz-adv-x="1028" d="M1028 1491L135 -182H0L891 1491H1028Z" />
<glyph unicode="&#x2122;" glyph-name="trademark" horiz-adv-x="819" d="M725 1051H696L643 1321L532 1032L424 1321L367 1051H340L420 1413L532 1106L649 1413L725 1051ZM350 1382H238V1047H211V1382H96V1409H350V1382Z" />
<glyph unicode="&#x2126;" glyph-name="uni2126" horiz-adv-x="1572" d="M1470 836Q1470 615 1323 473Q1192 348 963 305V184H1214Q1316 184 1356 225Q1389 262 1395 360H1442V0H885V369Q1051 402 1143 535Q1229 660 1229 836Q1229 1047 1112 1178T786 1309Q579
1309 462 1177T344 836Q344 656 428 535Q518 404 688 369V0H131V360H178Q184 260 220 222T358 184H610V305Q383 346 250 473Q103 614 102 836Q102 1104 317 1253Q505 1382 786 1382Q1067 1382 1255 1253Q1470 1104 1470 836Z" />
<glyph unicode="&#x2202;" glyph-name="partialdiff" horiz-adv-x="882" d="M526 834H461V1407L303 1245L256 1288L438 1473H526V834ZM752 709H131V778H752V709ZM717 184Q717 78 657 35Q606 -2 494 -2H387Q285 -2 243 38T201 178H266Q266 110 291 87T387 63H508Q582
63 612 84Q651 111 651 184Q651 299 524 299Q508 299 474 297T424 295V360Q547 360 569 367Q651 385 651 465Q651 571 514 571H387Q317 571 292 547T266 453H201V479Q201 637 387 637H494Q717 637 717 465Q717 352 627 332Q717 315 717 184Z" />
<glyph unicode="&#x2206;" glyph-name="uni2206" horiz-adv-x="1253" d="M1214 0H39L604 1376H649L1214 0ZM948 92L567 1032L184 92H948Z" />
<glyph unicode="&#x220f;" glyph-name="product" horiz-adv-x="882" d="M719 1278Q719 1133 600 1094Q489 1076 379 1055Q260 1024 260 901H717V836H195V930Q195 1055 313 1098L535 1145Q654 1178 653 1278Q653 1360 606 1391Q571 1414 487 1413H430Q272 1413
270 1300H199Q199 1478 430 1479H487Q606 1479 662 1436T719 1278ZM752 709H131V778H752V709ZM717 184Q717 78 657 35Q606 -2 494 -2H387Q285 -2 243 38T201 178H266Q266 110 291 87T387 63H508Q582 63 612 84Q651 111 651 184Q651 299 524 299Q508 299 474 297T424
295V360Q547 360 569 367Q651 385 651 465Q651 571 514 571H387Q317 571 292 547T266 453H201V479Q201 637 387 637H494Q717 637 717 465Q717 352 627 332Q717 315 717 184Z" />
<glyph unicode="&#x2211;" glyph-name="summation" horiz-adv-x="882" d="M526 834H461V1407L303 1245L256 1288L438 1473H526V834ZM752 709H131V778H752V709ZM688 135H600V-8H535V135H160V197L530 631H600V197H688V135ZM535 197V547L242 197H535Z" />
<glyph unicode="&#x2212;" glyph-name="minus" horiz-adv-x="999" d="M899 520H100V670H899V520Z" />
<glyph unicode="&#x2219;" glyph-name="uni2219" horiz-adv-x="466" d="M328 782H141V971H328V782Z" />
<glyph unicode="&#x221a;" glyph-name="radical" horiz-adv-x="1439" d="M1333 1036Q1020 848 766 582Q496 299 354 -12Q227 258 109 328L178 510Q309 328 358 176Q473 473 762 795Q1043 1104 1333 1272V1036Z" />
<glyph unicode="&#x221e;" glyph-name="infinity" horiz-adv-x="1460" d="M1352 614Q1352 458 1282 354Q1200 233 1055 233Q867 233 752 487Q619 233 430 233Q285 233 195 352Q111 463 111 610Q111 762 182 868Q264 991 410 991Q594 991 713 737Q838 991 1034
991Q1177 991 1268 872Q1352 764 1352 614ZM1303 621Q1303 730 1244 801T1077 872Q927 872 786 555Q882 365 1063 365Q1169 365 1236 437T1303 621ZM678 670Q569 860 401 860Q292 860 227 787T162 604Q162 500 215 430Q276 352 379 352Q481 352 565 465Q608 525
678 670Z" />
<glyph unicode="&#x222b;" glyph-name="integral'" horiz-adv-x="1660" d="M1513 0H147V1366H1513V0ZM1468 45V1319H193V45H1468Z" />
<glyph unicode="&#x2248;" glyph-name="uni22F2" horiz-adv-x="1589" d="M1513 264Q1513 139 1430 56T1221 -27Q1008 -27 950 137Q921 217 922 477H668Q668 215 639 137Q582 -27 369 -27Q244 -27 160 56T76 264Q76 467 248 528Q336 559 584 559V817Q332 817 246
848Q76 907 76 1114Q76 1233 163 1320T369 1407Q582 1407 639 1243Q668 1163 668 901H922Q922 1161 950 1241Q1009 1407 1221 1407Q1346 1407 1429 1323T1513 1114Q1513 911 1341 850Q1253 817 1006 817V559Q1254 559 1341 528Q1513 467 1513 264ZM1432 1110Q1432
1206 1372 1265T1214 1325Q1118 1325 1062 1265T1006 1108V901H1212Q1308 901 1370 957T1432 1110ZM584 901V1108Q584 1204 528 1264T375 1325Q277 1325 218 1267T158 1110Q158 1014 218 958T377 901H584ZM1432 268Q1432 364 1371 420T1212 477H1006V270Q1006 174
1062 114T1214 53Q1312 53 1372 111T1432 268ZM922 559V817H668V559H922ZM584 270V477H377Q279 477 219 421T158 268Q158 170 217 112T375 53Q471 53 527 113T584 270Z" />
<glyph unicode="&#x2260;" glyph-name="notequal" horiz-adv-x="876" d="M766 350H406L340 213H182L246 350H113V498H317L406 680H113V827H473L541 969H698L631 827H766V680H561L473 498H766V350Z" />
<glyph unicode="&#x2264;" glyph-name="lessequal" horiz-adv-x="874" d="M733 401L147 799L733 1196V1038L387 799L733 559V401ZM764 221H111V369H764V221Z" />
<glyph unicode="&#x2265;" glyph-name="greaterequal" horiz-adv-x="892" d="M731 791L147 391V551L492 791L147 1028V1188L731 791ZM774 221H121V369H774V221Z" />
<glyph unicode="&#x22f2;" glyph-name="uni22F2" horiz-adv-x="1589" d="M1513 264Q1513 139 1430 56T1221 -27Q1008 -27 950 137Q921 217 922 477H668Q668 215 639 137Q582 -27 369 -27Q244 -27 160 56T76 264Q76 467 248 528Q336 559 584 559V817Q332 817 246
848Q76 907 76 1114Q76 1233 163 1320T369 1407Q582 1407 639 1243Q668 1163 668 901H922Q922 1161 950 1241Q1009 1407 1221 1407Q1346 1407 1429 1323T1513 1114Q1513 911 1341 850Q1253 817 1006 817V559Q1254 559 1341 528Q1513 467 1513 264ZM1432 1110Q1432
1206 1372 1265T1214 1325Q1118 1325 1062 1265T1006 1108V901H1212Q1308 901 1370 957T1432 1110ZM584 901V1108Q584 1204 528 1264T375 1325Q277 1325 218 1267T158 1110Q158 1014 218 958T377 901H584ZM1432 268Q1432 364 1371 420T1212 477H1006V270Q1006 174
1062 114T1214 53Q1312 53 1372 111T1432 268ZM922 559V817H668V559H922ZM584 270V477H377Q279 477 219 421T158 268Q158 170 217 112T375 53Q471 53 527 113T584 270Z" />
<glyph unicode="&#x25ca;" glyph-name="lozenge" horiz-adv-x="966" d="M903 573L481 150L63 565L485 989L903 573ZM799 573L485 887L166 559L481 254L799 573Z" />
<glyph unicode="&#xf000;" glyph-name="uniF000" horiz-adv-x="1617" d="M1085 1352Q1085 1260 1008 1163Q928 1061 838 1061Q813 1061 813 1096Q813 1186 895 1278T1065 1370Q1085 1370 1085 1352ZM1475 379Q1305 -27 1069 -27Q995 -27 939 23T840 74Q795 74
742 26T623 -23Q449 -23 287 252Q144 500 143 686Q143 862 250 973T535 1085Q635 1085 723 1033T844 981Q897 981 977 1034T1151 1087Q1231 1087 1313 1055Q1413 1014 1430 948Q1266 825 1266 670Q1266 570 1323 488T1475 379Z" />
<glyph unicode="&#xf001;" glyph-name="uniF001" horiz-adv-x="1017" d="M911 0H764V1012H911V0ZM911 1288Q833 1288 724 1295T582 1303Q469 1303 428 1249Q381 1188 381 1012H680V877H381V0H233V877H109V1012H233Q233 1223 272 1300Q333 1421 524 1421H911V1288Z" />
<glyph unicode="&#xf002;" glyph-name="uniF002" horiz-adv-x="1030" d="M926 0H778V1288H514Q410 1288 385 1192Q377 1159 377 1012H676V879H377V0H229V879H104V1012H229Q229 1227 268 1303Q327 1422 520 1421H926V0Z" />
</font>
</defs>
</svg>
